<?xml version="1.0" encoding="UTF-8"?>
<svg version="1.1" xmlns="http://www.w3.org/2000/svg" width="1024" height="1024">
<path d="M0 0 C0.66 0 1.32 0 2 0 C2 0.66 2 1.32 2 2 C3.0725 1.835 4.145 1.67 5.25 1.5 C9.93278175 0.89792806 14.55198631 0.96480801 19.265625 1.0625 C21.70839284 1.00666531 23.67503433 0.70856097 26 0 C26 0.66 26 1.32 26 2 C27.13824219 1.83628906 28.27648437 1.67257813 29.44921875 1.50390625 C33.92120498 0.94527743 38.31159027 0.88585673 42.8125 0.9375 C43.56208984 0.94201172 44.31167969 0.94652344 45.08398438 0.95117188 C47.05601816 0.9635081 49.02801519 0.98141585 51 1 C51.99 1 52.98 1 54 1 C55.9700528 1.01159799 57.94010477 1.02333624 59.91015625 1.03515625 C62.29427005 1.04447439 64.67838468 1.05358027 67.0625 1.0625 C68.27228516 1.07087891 69.48207031 1.07925781 70.72851562 1.08789062 C72.45811523 1.09272461 72.45811523 1.09272461 74.22265625 1.09765625 C75.81219116 1.10551147 75.81219116 1.10551147 77.43383789 1.11352539 C79.98939882 1.17498658 79.98939882 1.17498658 82 0 C82 0.66 82 1.32 82 2 C82.83660156 1.9278125 83.67320312 1.855625 84.53515625 1.78125 C93.37792077 1.07617907 102.1282973 0.79488544 111 1 C112.22178955 1.02682861 112.22178955 1.02682861 113.46826172 1.05419922 C128.13505415 1.42844965 141.61689464 3.22165047 155.73046875 7.44921875 C158.25862664 8.15722625 158.25862664 8.15722625 162 8 C162.33 8.99 162.66 9.98 163 11 C165.60493398 12.60607489 165.60493398 12.60607489 168.8125 14.125 C175.82123791 17.75659027 181.81239499 22.07721425 188 27 C188.87269531 27.67933594 189.74539063 28.35867187 190.64453125 29.05859375 C196.46308749 33.85431921 200.81235969 39.97583899 205.1875 46.0625 C205.60346436 46.63983887 206.01942871 47.21717773 206.44799805 47.81201172 C214 58.47881776 214 58.47881776 214 62 C214.66 62.33 215.32 62.66 216 63 C217.27871767 65.96038204 218.08799995 69.09708397 219 72.1875 C219.26039063 73.01958984 219.52078125 73.85167969 219.7890625 74.70898438 C224.28660522 89.73486575 224.29727669 104.6265452 224.29193115 120.15956116 C224.2983735 122.50526797 224.30567604 124.85097256 224.31376004 127.19667429 C224.33132439 132.94474396 224.33976841 138.69277553 224.34426596 144.44086909 C224.35017366 151.33253954 224.36760242 158.22416914 224.38532325 165.11581762 C224.41965743 178.6166301 224.44272995 192.11744402 224.4609501 205.61828682 C224.47691734 217.43268648 224.49655087 229.24707293 224.51981354 241.06146049 C224.52135265 241.84605649 224.52289177 242.63065248 224.52447753 243.43902411 C224.5307279 246.62418568 224.53699168 249.80934722 224.5432779 252.99450872 C224.60213364 282.85419747 224.64944508 312.71389481 224.69159612 342.57361128 C224.72909572 369.08661428 224.7769509 395.59957974 224.83349609 422.11254883 C224.89703311 451.92019359 224.9540049 481.72783911 225.0004847 511.53551573 C225.00545964 514.71446226 225.01045096 517.89340877 225.01544952 521.07235527 C225.01667452 521.85505724 225.01789952 522.63775921 225.01916163 523.44417942 C225.03775504 535.25017623 225.06135039 547.05615623 225.08739471 558.86213875 C225.11698683 572.28878947 225.1393412 585.71543065 225.15219894 599.14210827 C225.15894244 605.9912637 225.16883922 612.8403772 225.18795204 619.68951035 C225.20512218 625.96196127 225.21291637 632.23435208 225.21330455 638.50682586 C225.215072 640.77311638 225.2202312 643.03940741 225.2291691 645.305681 C225.35678974 679.0924101 217.89348339 710.49895758 193.70703125 735.359375 C177.36518848 751.30033562 153.81841154 765.20418916 130.4453125 766.09765625 C129.29675781 766.08025391 129.29675781 766.08025391 128.125 766.0625 C127.34382812 766.05347656 126.56265625 766.04445313 125.7578125 766.03515625 C124.88769531 766.01775391 124.88769531 766.01775391 124 766 C123.67 766.66 123.34 767.32 123 768 C31.2279388 768.06434332 -60.54320745 768.03488511 -152.31492138 767.75547642 C-156.43709752 767.74296497 -160.55927418 767.73062696 -164.68145084 767.71829038 C-198.9182859 767.61579022 -233.15510647 767.50843922 -267.39190674 767.39489746 C-268.46291704 767.39134649 -269.53392734 767.38779552 -270.63739249 767.38413695 C-271.70958566 767.38058173 -272.78177882 767.37702651 -273.88646269 767.37336355 C-276.05402851 767.36617712 -278.22159433 767.35899148 -280.38916016 767.35180664 C-281.46055978 767.34825424 -282.53195941 767.34470184 -283.63582569 767.3410418 C-301.46066213 767.28204495 -319.285508 767.22689876 -337.11036634 767.17494446 C-347.93736462 767.14323075 -358.76434258 767.10829877 -369.59131598 767.06898809 C-376.88287872 767.04275796 -384.17444676 767.02009168 -391.46602988 767.00032883 C-395.65591124 766.98885337 -399.84577041 766.97570071 -404.03563118 766.95816994 C-407.85901796 766.94220064 -411.68238914 766.9308118 -415.50580138 766.92316891 C-416.89013758 766.91957249 -418.27447053 766.91424984 -419.65879279 766.90707164 C-421.53062597 766.89760622 -423.40248973 766.89489383 -425.2743454 766.89256954 C-426.83583163 766.88744332 -426.83583163 766.88744332 -428.42886305 766.88221353 C-431.11953529 766.88846631 -431.11953529 766.88846631 -434 768 C-434.495 766.515 -434.495 766.515 -435 765 C-435.84304688 765.0309375 -435.84304688 765.0309375 -436.703125 765.0625 C-456.10904611 764.58628108 -474.68523994 751.99617217 -489 740 C-489.82757813 739.36835937 -490.65515625 738.73671875 -491.5078125 738.0859375 C-499.16141792 731.67994174 -506.52412584 721.95174833 -511 713 C-511.99 712.67 -512.98 712.34 -514 712 C-515 709.5625 -515 709.5625 -516 706 C-516.2371875 705.23945312 -516.474375 704.47890625 -516.71875 703.6953125 C-518.26311927 698.73788713 -519.53017883 693.82217375 -520.47265625 688.71484375 C-520.64667969 688.14894531 -520.82070313 687.58304688 -521 687 C-521.66 686.67 -522.32 686.34 -523 686 C-524.40139378 679.39127211 -524.16239149 672.31787248 -524.2023468 665.58770752 C-524.2119461 664.57726324 -524.22154541 663.56681897 -524.2314356 662.52575517 C-524.26229958 659.12298665 -524.28622466 655.72020905 -524.30981445 652.31738281 C-524.33012111 649.81813632 -524.35065627 647.31889167 -524.37139702 644.81964874 C-524.43314359 637.11138861 -524.48524181 629.40308158 -524.53586552 621.69474161 C-524.55588331 618.68636011 -524.57689278 615.67798584 -524.59787882 612.66961096 C-525.23759265 520.70624908 -525.18803972 428.73991525 -525.18518831 336.77481514 C-525.18476934 316.70657595 -525.19454347 296.63835492 -525.2084411 276.57012102 C-525.222803 255.66038088 -525.22971298 234.75064967 -525.22884732 213.84090447 C-525.22851773 202.21818515 -525.23116653 190.59548545 -525.24202538 178.97277069 C-525.25112246 169.18194341 -525.25330804 159.39114492 -525.24651595 149.60031524 C-525.24326141 144.62733544 -525.24315843 139.65441101 -525.2518692 134.68143654 C-525.2597694 130.12547596 -525.25826777 125.56961444 -525.24958507 121.01365617 C-525.24805917 119.37692049 -525.24983145 117.74017727 -525.25544515 116.10345051 C-525.35981383 83.49639865 -516.912879 55.92920814 -494.05859375 31.9921875 C-473.40794584 11.22639986 -446.41948877 1.52346461 -417.47637939 1.25709534 C-415.91502124 1.22940267 -414.35368488 1.20045777 -412.79237103 1.17037064 C-407.86174364 1.08346895 -402.9312155 1.03786305 -398 1 C-397.20261126 0.99312844 -396.40522253 0.98625688 -395.5836705 0.97917709 C-383.78021483 0.87887468 -371.97732774 0.87040635 -360.17352772 0.88393438 C-355.31521944 0.8883489 -350.45691202 0.88678486 -345.59860229 0.8860321 C-337.22764511 0.88551367 -328.85669585 0.8885882 -320.48574066 0.89426994 C-308.38349838 0.90247883 -296.28125984 0.90500965 -284.17901507 0.90625793 C-264.53275268 0.9084339 -244.88649449 0.91505405 -225.24023438 0.92456055 C-206.18229188 0.93377265 -187.12435053 0.94083478 -168.06640625 0.94506836 C-166.29735696 0.94546244 -166.29735696 0.94546244 -164.4925693 0.94586449 C-158.57465178 0.94716975 -152.65673426 0.94843341 -146.73881674 0.94967639 C-97.82587492 0.96000358 -48.91293767 0.97758171 0 1 C0 0.67 0 0.34 0 0 Z M-389 106 C-389.69867188 106.56460938 -390.39734375 107.12921875 -391.1171875 107.7109375 C-411.178607 124.33771708 -421.9138602 150.06426508 -424.35381794 175.47422504 C-425.54289792 189.62039383 -425.27183401 203.85306053 -425.23571944 218.03744292 C-425.22679284 222.29703962 -425.22869916 226.55663425 -425.2290802 230.8162384 C-425.22815002 237.95946107 -425.21955343 245.10264069 -425.20581055 252.24584961 C-425.19007396 260.45464665 -425.18481351 268.66339678 -425.1855461 276.87220782 C-425.18622618 285.68951883 -425.17926264 294.50681226 -425.1700995 303.3241179 C-425.16798839 305.83213447 -425.16726112 308.34014813 -425.16686058 310.84816551 C-425.22948012 366.55656056 -425.22948012 366.55656056 -397 413 C-395.77796875 414.22783203 -395.77796875 414.22783203 -394.53125 415.48046875 C-393.6959375 416.31191406 -392.860625 417.14335938 -392 418 C-391.24203125 418.76699219 -390.4840625 419.53398438 -389.703125 420.32421875 C-381.63992089 428.09211443 -372.13954865 434.47643343 -361.82983398 438.93945312 C-360 440 -360 440 -359 443 C-358.89807096 444.9516606 -358.85423938 446.9065559 -358.84228516 448.86083984 C-358.83202301 450.06574066 -358.82176086 451.27064148 -358.81118774 452.51205444 C-358.80388641 453.81518585 -358.79658508 455.11831726 -358.7890625 456.4609375 C-358.776096 457.81231502 -358.7622796 459.16368463 -358.74765015 460.51504517 C-358.68612134 466.25182021 -358.63201473 471.98857251 -358.59863281 477.72558594 C-358.57765249 481.23703629 -358.54232429 484.7480987 -358.49787521 488.25932693 C-358.4768865 490.24281829 -358.47167219 492.22645631 -358.46670532 494.21005249 C-358.45013885 495.42125763 -358.43357239 496.63246277 -358.41650391 497.88037109 C-358.40841705 498.94387787 -358.4003302 500.00738464 -358.39199829 501.1031189 C-357.93997376 504.44359599 -356.99764646 506.3037295 -355 509 C-350.89020734 511.73986177 -347.81266254 511.80695843 -343 511 C-341.02275989 509.89982667 -341.02275989 509.89982667 -339.22265625 508.375 C-338.53228271 507.82908203 -337.84190918 507.28316406 -337.13061523 506.72070312 C-336.42751221 506.15287109 -335.72440918 505.58503906 -335 505 C-333.63968785 503.94576215 -332.27770258 502.89367968 -330.9140625 501.84375 C-329.48381881 500.72988047 -328.05415275 499.61526893 -326.625 498.5 C-325.03908763 497.26429066 -323.45314938 496.02861454 -321.8671875 494.79296875 C-321.06249023 494.16567871 -320.25779297 493.53838867 -319.42871094 492.89208984 C-317.06069269 491.0472827 -314.69089296 489.20479442 -312.3203125 487.36328125 C-302.60464934 479.8157211 -292.9144346 472.23695461 -283.25146484 464.62207031 C-276.77016129 459.51493892 -270.2795231 454.42041596 -263.75 449.375 C-263.20077881 448.94888428 -262.65155762 448.52276855 -262.08569336 448.08374023 C-258.21036976 445.09870198 -256.21036827 443.87585643 -251.33482265 443.86692142 C-249.85019863 443.86055986 -249.85019863 443.86055986 -248.3355822 443.85406977 C-247.2401927 443.8544559 -246.14480321 443.85484203 -245.01622009 443.85523987 C-243.85860989 443.85171302 -242.70099968 443.84818618 -241.50831038 443.84455246 C-238.28479331 443.83569475 -235.06130459 443.83130033 -231.8377775 443.82870948 C-228.3643721 443.82482159 -224.89098244 443.81518327 -221.41758728 443.80615234 C-215.39243324 443.79119488 -209.36728046 443.77965798 -203.3421154 443.77020454 C-194.6121549 443.75633041 -185.88222334 443.73513992 -177.15228362 443.71177601 C-162.96505468 443.67382424 -148.77782045 443.63887515 -134.59057617 443.60717773 C-133.74085063 443.60527724 -132.89112508 443.60337675 -132.01565028 443.60141867 C-119.98581584 443.57464875 -107.95597738 443.55076159 -95.92613471 443.52803367 C-95.08095704 443.52643637 -94.23577936 443.52483906 -93.36499023 443.52319336 C-92.5208468 443.52159989 -91.67670337 443.52000643 -90.80697983 443.51836468 C-76.69182847 443.49152251 -62.57670751 443.45708662 -48.46158892 443.41653961 C-39.76458383 443.39185919 -31.06761134 443.37347986 -22.37057687 443.363384 C-16.39567255 443.35594744 -10.42081197 443.34135327 -4.44593673 443.32131977 C-1.00692262 443.31001781 2.43202125 443.30178845 5.8710556 443.30232811 C40.42383789 443.29223749 69.04784848 438.9432656 94.8125 413.5625 C115.92215971 392.13243682 123.31011505 366.19569574 123.29052734 336.83325195 C123.29652308 335.02657293 123.303331 333.21989645 123.31088257 331.41322327 C123.32844394 326.53690099 123.33323377 321.66064904 123.33451414 316.78429818 C123.33594197 313.72871638 123.34022347 310.67315211 123.34550858 307.61757469 C123.3639766 296.93196872 123.37218329 286.24641242 123.37060547 275.56079102 C123.36940512 265.64172172 123.39049487 255.72287038 123.4220928 245.80385619 C123.44834944 237.25309053 123.45896884 228.70239565 123.45769465 220.15159005 C123.45718775 215.06000501 123.46271908 209.96861391 123.48405075 204.87706947 C123.50359206 200.08258529 123.50345041 195.2884769 123.48901749 190.4939785 C123.4869478 188.74825356 123.49151844 187.00250408 123.5037384 185.25682068 C123.68835565 157.023631 113.71644643 132.30280915 94 112 C93.45085938 111.38898438 92.90171875 110.77796875 92.3359375 110.1484375 C86.23609985 103.56782447 78.11891013 97.84155191 70 94 C69.09765625 93.51402344 68.1953125 93.02804688 67.265625 92.52734375 C61.32056075 89.39309356 56.68111886 87.50423539 50 87 C49.67 86.34 49.34 85.68 49 85 C39.72886088 81.69333531 30.18850646 80.68001195 20.40432739 80.38699341 C19.28297744 80.34909577 18.16162749 80.31119812 17.00629723 80.27215207 C3.2538134 79.85202255 -10.5022427 79.85730539 -24.25963306 79.86927533 C-28.19680759 79.87158023 -32.13397807 79.8680252 -36.07115173 79.86529541 C-43.74252218 79.86089336 -51.41388274 79.86178872 -59.08525355 79.86470805 C-65.32448458 79.86698258 -71.56371286 79.86726582 -77.80294418 79.86618423 C-78.69679428 79.866031 -79.59064438 79.86587777 -80.51158085 79.86571989 C-82.32827426 79.86540012 -84.14496767 79.8650759 -85.96166109 79.8647473 C-102.91628606 79.86190926 -119.8709056 79.86515394 -136.82552968 79.87054767 C-151.33909281 79.8750219 -165.85264795 79.87423142 -180.36621094 79.86962891 C-197.28290942 79.86426671 -214.19960316 79.86217574 -231.11630237 79.86524117 C-232.92260607 79.86555968 -234.72890977 79.86587405 -236.53521347 79.86618423 C-237.86783561 79.86641565 -237.86783561 79.86641565 -239.22737942 79.86665174 C-245.45636777 79.86751138 -251.68535309 79.86606613 -257.91434097 79.86370468 C-265.50839889 79.86088851 -273.10244649 79.86168342 -280.69650324 79.86698543 C-284.56288062 79.86959682 -288.42924084 79.87067129 -292.29561806 79.86733627 C-328.61373196 79.83867148 -360.0853611 81.398053 -389 106 Z M96 530 C95.27114146 533.64429272 94.87463486 536.3433767 94.87301636 539.95315552 C94.87019653 540.92544098 94.86737671 541.89772644 94.86447144 542.8994751 C94.86649567 543.95503601 94.8685199 545.01059692 94.87060547 546.09814453 C94.86885315 547.21927643 94.86710083 548.34040833 94.86529541 549.49551392 C94.86088986 553.20796248 94.86381315 556.92036344 94.8671875 560.6328125 C94.86651343 563.22573862 94.86554254 565.81866467 94.86428833 568.41159058 C94.86281257 573.85724545 94.86486353 579.30288258 94.86962891 584.74853516 C94.87503285 590.99497809 94.87333643 597.24138819 94.8678025 603.48783028 C94.86266263 609.53674056 94.86327804 615.58563662 94.86618423 621.63454819 C94.86684529 624.18664428 94.86605425 626.73874123 94.86370468 629.29083633 C94.85430122 642.39224336 94.95983593 655.43903213 95.78591919 668.51730347 C95.91857133 670.67530706 96 672.8379232 96 675 C104.58 675 113.16 675 122 675 C122 627.15 122 579.3 122 530 C113.42 530 104.84 530 96 530 Z M-514 708 C-513 710 -513 710 -513 710 Z " fill="#2787BF" transform="translate(662,112)"/>
<path d="M0 0 C2.47882865 0.0161328 4.95603337 0.00000767 7.43481445 -0.01904297 C35.76207117 -0.0565115 62.79029532 8.11101037 83.60083008 27.95361328 C84.36395508 28.75798828 85.12708008 29.56236328 85.91333008 30.39111328 C86.47793945 30.93509766 87.04254883 31.47908203 87.62426758 32.03955078 C90.47356315 34.7926676 93.05478504 37.39728845 95.16333008 40.76611328 C96.706856 43.66336671 96.706856 43.66336671 99.91333008 44.39111328 C100.08928711 45.47585938 100.08928711 45.47585938 100.26879883 46.58251953 C100.92862277 49.45775233 101.91422955 51.69323018 103.22583008 54.32861328 C109.74270368 68.36060991 112.03076298 83.05141569 112.28833008 98.39111328 C112.31443359 99.29998291 112.34053711 100.20885254 112.36743164 101.14526367 C112.37857452 105.4173659 112.30974967 107.75162159 110.01489258 111.45361328 C106.80688153 114.4111848 104.97344428 114.52749815 100.69995117 114.59643555 C99.5971431 114.6163707 98.49433502 114.63630585 97.35810852 114.65684509 C96.14656601 114.67356766 94.9350235 114.69029022 93.68676758 114.70751953 C92.42330002 114.72839127 91.15983246 114.749263 89.858078 114.77076721 C86.39472679 114.82715142 82.93131044 114.87654225 79.46782303 114.9237442 C77.27702594 114.9537682 75.08625137 114.98512892 72.89547729 115.01678467 C46.11876152 115.40032373 19.34714458 115.57806123 -7.43238449 115.42557621 C-12.36109109 115.39824826 -17.28979259 115.37920665 -22.21854687 115.36276436 C-32.347933 115.32886655 -42.4770427 115.27807144 -52.60621929 115.20399666 C-57.72161177 115.16681665 -62.83685301 115.13589266 -67.95236206 115.1206665 C-72.79186586 115.10572101 -77.63086512 115.07152584 -82.47014427 115.02293015 C-84.27528766 115.00806871 -86.08050159 115.00006304 -87.88570595 114.9991951 C-90.37479831 114.99684704 -92.86247027 114.96998375 -95.35131836 114.93701172 C-96.08130759 114.94204271 -96.81129683 114.94707371 -97.56340694 114.95225716 C-100.99513866 114.88134158 -102.7760297 114.63607774 -105.50762939 112.48199463 C-111.06754517 105.11985035 -108.39846225 90.50191123 -107.33666992 81.64111328 C-104.67556791 64.55500315 -99.54919496 49.5633847 -88.08666992 36.39111328 C-87.1044043 35.19421875 -87.1044043 35.19421875 -86.10229492 33.97314453 C-64.54251847 8.59713027 -32.23862301 -0.24840587 0 0 Z " fill="#2787BF" transform="translate(604.086669921875,380.60888671875)"/>
<path d="M0 0 C3.25709349 1.31142125 6.52068587 2.59085783 9.8125 3.8125 C14.10305989 5.42145996 16.76430974 7.23764747 20.3125 10.125 C21.23289062 10.8571875 22.15328125 11.589375 23.1015625 12.34375 C24.50535156 13.47296875 24.50535156 13.47296875 25.9375 14.625 C27.34902344 15.75421875 27.34902344 15.75421875 28.7890625 16.90625 C31.05314166 18.89695737 32.84246459 20.49770268 34.3125 23.125 C34.125 25.0625 34.125 25.0625 33.3125 27.125 C33.01214844 27.91648437 32.71179688 28.70796875 32.40234375 29.5234375 C31.65625059 31.30443407 30.89780931 33.08029406 30.12890625 34.8515625 C23.01479529 51.29601836 21.14768199 66.72280042 20.8828125 84.47851562 C20.851875 85.64447266 20.8209375 86.81042969 20.7890625 88.01171875 C20.76924316 89.06576904 20.74942383 90.11981934 20.72900391 91.20581055 C20.21492615 94.80887484 18.90687766 97.53062234 16.3125 100.125 C14.95854564 100.23459278 13.59900526 100.27621986 12.24069214 100.28994751 C11.36170761 100.30118149 10.48272308 100.31241547 9.57710266 100.32398987 C8.60403671 100.33131638 7.63097076 100.33864288 6.62841797 100.34619141 C5.60827103 100.3576973 4.58812408 100.36920319 3.5370636 100.38105774 C0.12630294 100.41803357 -3.28447526 100.44756698 -6.6953125 100.4765625 C-9.08910345 100.49971291 -11.48289209 100.52310346 -13.87667847 100.54672241 C-18.93273517 100.59537353 -23.98880903 100.64021665 -29.04492188 100.68261719 C-34.1553405 100.72579886 -39.26566037 100.77417168 -44.37597656 100.828125 C-68.79363981 101.08573353 -93.20338825 101.33779139 -117.6171875 100.7109375 C-118.43941929 100.69068134 -119.26165108 100.67042519 -120.10879898 100.64955521 C-133.12074323 100.31391892 -133.12074323 100.31391892 -136.6875 99.125 C-142.36260528 91.85501736 -139.9672168 79.87386687 -139 71.125 C-136.82891706 54.21730575 -129.66060828 40.04324501 -118.6875 27.125 C-117.91148437 26.14917969 -117.13546875 25.17335938 -116.3359375 24.16796875 C-106.0613302 11.87398415 -90.60933685 4.19162783 -75.6875 -0.875 C-74.3675 -0.875 -73.0475 -0.875 -71.6875 -0.875 C-71.3575 -1.535 -71.0275 -2.195 -70.6875 -2.875 C-67.7890701 -3.37558171 -64.98565327 -3.73275913 -62.0625 -4 C-61.17240234 -4.0834668 -60.28230469 -4.16693359 -59.36523438 -4.25292969 C-40.4118353 -5.86640529 -17.8969577 -7.24868931 0 0 Z " fill="#2787BF" transform="translate(460.6875,394.875)"/>
<path d="M0 0 C3.65611633 3.03200669 7.00145448 6.31766756 10.31738281 9.71484375 C10.92195312 10.29878906 11.52652344 10.88273437 12.14941406 11.484375 C23.20919874 23.01106351 26.78958492 39.35830004 26.67358398 54.77587891 C26.49893681 61.12033451 25.56281587 66.75283184 23.31738281 72.71484375 C23.03894531 73.55015625 22.76050781 74.38546875 22.47363281 75.24609375 C17.47717533 89.20171638 5.93877986 102.39795587 -7.10058594 109.5390625 C-16.42883998 113.78687561 -25.25140696 115.89867646 -35.43261719 115.83984375 C-36.63760864 115.83694336 -36.63760864 115.83694336 -37.86694336 115.83398438 C-43.2106098 115.79493596 -48.38385129 115.43332048 -53.68261719 114.71484375 C-55.34893688 114.68083723 -57.016817 114.66110826 -58.68261719 114.71484375 C-59.01261719 113.72484375 -59.34261719 112.73484375 -59.68261719 111.71484375 C-62.06612635 110.41062808 -62.06612635 110.41062808 -64.99511719 109.21484375 C-80.7908974 101.56083149 -91.04685471 87.23915367 -96.74902344 70.921875 C-99.83862351 60.30864631 -99.74859042 50.64699149 -98.68261719 39.71484375 C-98.60785156 38.61785156 -98.53308594 37.52085937 -98.45605469 36.390625 C-98.38644531 35.40449219 -98.31683594 34.41835938 -98.24511719 33.40234375 C-98.18453125 32.53996094 -98.12394531 31.67757812 -98.06152344 30.7890625 C-97.68261719 28.71484375 -97.68261719 28.71484375 -95.68261719 26.71484375 C-93.63596908 24.09907425 -91.82875262 21.3967309 -90.05761719 18.58984375 C-79.13954975 2.34588976 -64.78095697 -7.08191517 -45.62011719 -10.89453125 C-29.71450574 -13.00963916 -12.93219823 -9.87740735 0 0 Z M-96.68261719 29.71484375 C-95.68261719 31.71484375 -95.68261719 31.71484375 -95.68261719 31.71484375 Z " fill="#2787BF" transform="translate(642.6826171875,253.28515625)"/>
<path d="M0 0 C7.85167618 6.6590165 13.4293454 13.78651527 17.75 23.1875 C17.75 23.8475 17.75 24.5075 17.75 25.1875 C18.41 25.5175 19.07 25.8475 19.75 26.1875 C24.08374794 39.96453821 22.54335746 55.34050511 16.5625 68.3125 C8.68111891 82.9493506 -4.09524618 93.53231142 -20.04296875 98.328125 C-34.24210891 101.63564983 -49.3401988 99.56250734 -61.75 92 C-62.5028125 91.49082031 -63.255625 90.98164063 -64.03125 90.45703125 C-66.44986723 89.07313935 -68.50768835 88.58822512 -71.25 88.1875 C-71.25 87.1975 -71.25 86.2075 -71.25 85.1875 C-72.91543021 83.01034801 -72.91543021 83.01034801 -75.0625 80.8125 C-77.9321895 77.7703155 -80.20362849 74.84127374 -82.25 71.1875 C-83.24 71.6825 -83.24 71.6825 -84.25 72.1875 C-84.353125 71.218125 -84.45625 70.24875 -84.5625 69.25 C-85.09426989 65.4505427 -86.23152337 61.99868026 -87.53125 58.3984375 C-91.87494911 45.03684133 -89.70760487 30.3961217 -83.70703125 18 C-76.17892132 4.21856306 -64.31294856 -5.20092036 -49.25 -9.8125 C-31.87660114 -14.070686 -14.33421793 -11.00971558 0 0 Z " fill="#2887BF" transform="translate(455.25,278.8125)"/>
<path d="M0 0 C1.32837891 0.67095703 1.32837891 0.67095703 2.68359375 1.35546875 C14.90161035 8.12711837 22.08698065 18.40493591 26.4375 31.625 C30.76395594 48.50190788 28.21776669 65.1443569 19.71875 80.22265625 C18.24351264 82.60650571 16.83194867 84.87799279 15 87 C14.34 87 13.68 87 13 87 C13 87.66 13 88.32 13 89 C1.29686428 99.27918004 -12.44940323 103.68901175 -27.95703125 103.30859375 C-42.22552772 101.86159603 -55.8537361 97.04684631 -65.18359375 85.65234375 C-75.80463613 70.14333778 -78.78082289 52.31372571 -75.34765625 33.84375 C-71.99753131 20.84584036 -64.60863558 10.0665679 -53.3125 2.8125 C-51.55998168 1.84119341 -49.7884916 0.90335748 -48 0 C-47.18660156 -0.41636719 -46.37320312 -0.83273437 -45.53515625 -1.26171875 C-32.44109856 -6.74161074 -12.65168056 -6.47621683 0 0 Z " fill="#EFF3F5" transform="translate(434,688)"/>
<path d="M0 0 C1.10811035 0.00563965 2.2162207 0.0112793 3.35791016 0.01708984 C17.36882439 0.22510136 29.92585193 2.78569228 40.625 12.5625 C48.23378423 20.77486567 49.75 29.32218429 49.75 40.3125 C41.5 40.3125 33.25 40.3125 24.75 40.3125 C23.43 37.0125 22.11 33.7125 20.75 30.3125 C17.59970107 25.76206821 13.01846871 24.32538679 7.75 23.3125 C-0.74616934 22.54848911 -9.01251777 22.25439444 -16.25 27.3125 C-19.75063614 30.98816795 -21.3983738 33.58603436 -21.5 38.625 C-21.52578125 39.38425781 -21.5515625 40.14351562 -21.578125 40.92578125 C-21.1496357 44.04253079 -20.07010125 45.74696058 -18.25 48.3125 C-9.93337799 54.16954366 0.1250486 56.23326186 9.875 58.4375 C26.32344041 62.22098421 40.32953995 66.05001356 50.75 80.3125 C56.28554467 90.12643268 56.10841819 102.4347249 53.25 113.0625 C49.36888928 124.24282247 41.83850117 131.22641234 31.484375 136.45703125 C12.65176989 144.78204046 -9.54154394 144.2904285 -28.6875 137.1875 C-37.94939724 132.94405188 -45.73075122 125.47031765 -50.25 116.3125 C-52.23279952 110.83906861 -53.25 106.15423883 -53.25 100.3125 C-43.68 100.3125 -34.11 100.3125 -24.25 100.3125 C-23.26 103.2825 -22.27 106.2525 -21.25 109.3125 C-14.9395006 116.12783935 -8.63574374 118.32989106 0.58520508 118.71459961 C7.84679868 118.83687705 14.46497785 118.26454233 20.75 114.3125 C24.691062 110.371438 25.90213369 106.9946563 26.0625 101.5 C25.98445473 96.62571821 25.20706455 93.94241778 21.75 90.3125 C13.49404185 85.24634386 3.81168342 83.67698815 -5.52880859 81.54150391 C-18.660176 78.51423805 -36.32358209 74.23719951 -44.25 62.3125 C-49.92525535 51.80054946 -52.03344847 41.93419944 -49.56640625 30.0078125 C-45.83615102 17.84191785 -39.02264581 11.03736461 -27.921875 5.05859375 C-18.84210478 0.7568145 -9.9613139 -0.0527213 0 0 Z " fill="#EFF3F5" transform="translate(288.25,648.6875)"/>
<path d="M0 0 C1.06412109 -0.01611328 2.12824219 -0.03222656 3.22460938 -0.04882812 C15.50198491 -0.0563189 27.69194907 2.9609955 37.015625 11.34375 C43.85414398 19.39658544 45.81880834 28.41627847 45.80102539 38.69482422 C45.80117142 39.40771103 45.80131744 40.12059784 45.8014679 40.85508728 C45.80077572 43.19248585 45.79301612 45.52980299 45.78515625 47.8671875 C45.7832896 49.49528968 45.78186686 51.12339242 45.78086853 52.75149536 C45.77706282 57.02251759 45.76724926 61.29350545 45.75616455 65.56451416 C45.74590848 69.92842138 45.74136194 74.29233419 45.73632812 78.65625 C45.72562515 87.20835081 45.70804422 95.76041716 45.6875 104.3125 C37.1075 104.3125 28.5275 104.3125 19.6875 104.3125 C19.3575 100.3525 19.0275 96.3925 18.6875 92.3125 C16.955 94.16875 16.955 94.16875 15.1875 96.0625 C7.23619181 103.94430375 -3.14873117 107.29264001 -14.3125 107.6875 C-25.82528623 107.24398978 -34.91159673 103.59338319 -43.125 95.5625 C-48.51271017 87.55790203 -50.54958594 79.95411827 -49.3125 70.3125 C-47.27179332 61.95647027 -42.90005975 55.76515821 -36.0703125 50.625 C-20.5498375 41.41403561 1.11787676 41.70511728 18.6875 41.3125 C18.22261531 32.87387293 18.22261531 32.87387293 14.6875 25.3125 C8.38321417 20.62469771 1.29225116 20.61052297 -6.3125 21.3125 C-11.67539142 22.90406778 -15.29125775 25.54823337 -18.3125 30.3125 C-19.55266669 32.9919645 -19.55266669 32.9919645 -20.3125 35.3125 C-28.77454771 35.61471599 -36.94995983 34.46170797 -45.3125 33.3125 C-43.41664919 22.45444537 -39.02163799 14.27373072 -30.3125 7.3125 C-20.56177092 1.20473011 -11.29048877 -0.03382411 0 0 Z " fill="#EFF3F5" transform="translate(685.3125,683.6875)"/>
<path d="M0 0 C8.52735089 6.49702925 13.46698904 15.20037175 15.21484375 25.6875 C6.96484375 27.3375 -1.28515625 28.9875 -9.78515625 30.6875 C-11.76515625 27.3875 -13.74515625 24.0875 -15.78515625 20.6875 C-21.81398192 15.20674939 -27.178963 14.89939401 -35.21875 15.21875 C-40.18311546 15.87124053 -43.34730185 17.01339494 -46.78515625 20.6875 C-52.48541653 28.45944078 -53.97677581 34.45385701 -54.03515625 43.875 C-54.05578125 44.68775391 -54.07640625 45.50050781 -54.09765625 46.33789062 C-54.15259699 54.97045517 -51.98872034 63.38598489 -45.78515625 69.6875 C-40.28211534 74.20213065 -34.03151306 74.35079695 -27.13671875 74.13671875 C-20.74602867 73.28015773 -17.28924256 70.62697972 -13.41015625 65.625 C-12.14716174 63.34189454 -10.95200891 61.02120533 -9.78515625 58.6875 C-1.20515625 60.3375 7.37484375 61.9875 16.21484375 63.6875 C12.5059743 76.05039815 8.71888732 84.5975798 -2.44140625 91.27734375 C-17.84165597 99.56510972 -33.1356063 100.60965139 -49.78515625 95.6875 C-63.40521671 90.51154523 -72.56070555 81.73348147 -78.7421875 68.6640625 C-85.01744982 53.51687759 -84.46167442 35.84714263 -78.78515625 20.6875 C-72.65866607 7.6459615 -63.91532046 -0.91909871 -50.41015625 -6.125 C-33.83996835 -11.553165 -14.64955215 -9.49727854 0 0 Z " fill="#EFF3F5" transform="translate(558.78515625,692.3125)"/>
<path d="M0 0 C8.91 0 17.82 0 27 0 C27 33.99 27 67.98 27 103 C18.09 103 9.18 103 0 103 C0 69.01 0 35.02 0 0 Z " fill="#EFF3F5" transform="translate(590,685)"/>
<path d="M0 0 C5.52896264 3.57631557 9.09666779 8.911129 11.33984375 15.046875 C13.5895599 25.62559645 13.98001938 38.93466913 8.03515625 48.31640625 C7.62265625 48.97769531 7.21015625 49.63898437 6.78515625 50.3203125 C2.54631524 56.08850808 -3.34172526 58.56398596 -10.29296875 59.6953125 C-17.04547697 60.06127011 -22.89311128 58.00714865 -27.98046875 53.55078125 C-33.84463689 47.29238332 -36.23214487 40.81571324 -36.96484375 32.31640625 C-37.06152344 31.22585938 -37.06152344 31.22585938 -37.16015625 30.11328125 C-37.59517677 21.12285725 -35.47522203 11.86962866 -29.77734375 4.75390625 C-21.51593522 -3.56023467 -10.45012677 -5.28957034 0 0 Z " fill="#2583BB" transform="translate(421.96484375,708.68359375)"/>
<path d="M0 0 C0.66 0 1.32 0 2 0 C2 0.66 2 1.32 2 2 C3.0725 1.835 4.145 1.67 5.25 1.5 C9.93278175 0.89792806 14.55198631 0.96480801 19.265625 1.0625 C21.70839284 1.00666531 23.67503433 0.70856097 26 0 C26 0.66 26 1.32 26 2 C27.13824219 1.83628906 28.27648437 1.67257813 29.44921875 1.50390625 C33.92120498 0.94527743 38.31159027 0.88585673 42.8125 0.9375 C43.56208984 0.94201172 44.31167969 0.94652344 45.08398438 0.95117188 C47.05601816 0.9635081 49.02801519 0.98141585 51 1 C51.99 1 52.98 1 54 1 C55.9700528 1.01159799 57.94010477 1.02333624 59.91015625 1.03515625 C62.29427005 1.04447439 64.67838468 1.05358027 67.0625 1.0625 C68.27228516 1.07087891 69.48207031 1.07925781 70.72851562 1.08789062 C72.45811523 1.09272461 72.45811523 1.09272461 74.22265625 1.09765625 C75.81219116 1.10551147 75.81219116 1.10551147 77.43383789 1.11352539 C79.98939882 1.17498658 79.98939882 1.17498658 82 0 C82 0.66 82 1.32 82 2 C82.83660156 1.9278125 83.67320312 1.855625 84.53515625 1.78125 C97.09953179 0.77943933 109.54026196 0.87416884 122.125 1.375 C123.02613525 1.40577637 123.92727051 1.43655273 124.85571289 1.46826172 C129.29340848 1.6699181 132.964558 1.94041757 137 4 C137 4.33 137 4.66 137 5 C135.80767726 4.99962028 134.61535452 4.99924056 133.38690078 4.99884933 C80.82817586 4.98217678 28.26945071 4.96674951 -24.28927612 4.95765686 C-25.08525477 4.9575188 -25.88123342 4.95738075 -26.70133264 4.95723851 C-44.00097185 4.95424545 -61.30061109 4.95147529 -78.60025037 4.94893467 C-87.08424895 4.94768736 -95.56824752 4.9463908 -104.05224609 4.94506836 C-104.89649643 4.9449376 -105.74074677 4.94480684 -106.61058045 4.94467212 C-133.96474878 4.94041238 -161.31891503 4.93290227 -188.67308211 4.92370278 C-216.78799559 4.91426464 -244.90290792 4.90811327 -273.01782296 4.90608501 C-276.99078289 4.90579686 -280.96374281 4.90547123 -284.93670273 4.90512276 C-285.71862198 4.90505533 -286.50054123 4.90498791 -287.306155 4.90491844 C-299.88217435 4.9037377 -312.45819015 4.89910226 -325.03420806 4.89316797 C-337.68383361 4.88727292 -350.33345567 4.88503398 -362.98308255 4.88649862 C-369.83427221 4.88719125 -376.68545241 4.88628843 -383.53664017 4.88079453 C-389.81277917 4.87591972 -396.08890083 4.87568816 -402.36504065 4.87910111 C-404.63176229 4.87952278 -406.89848503 4.87826157 -409.16520454 4.87511682 C-420.49105865 4.86032149 -431.71499877 4.92304169 -443 6 C-442.01 5.67 -441.02 5.34 -440 5 C-440 4.34 -440 3.68 -440 3 C-435.62808744 2.17960067 -431.41168899 1.8186879 -426.96718216 1.68758488 C-426.28831647 1.66706815 -425.60945078 1.64655141 -424.91001341 1.62541296 C-422.66141489 1.55980552 -420.41271319 1.50153792 -418.16387939 1.44459534 C-417.37536572 1.42360464 -416.58685204 1.40261395 -415.77444401 1.38098717 C-397.2412848 0.8948566 -378.71187352 0.86268807 -360.17352772 0.88393438 C-355.31521944 0.8883489 -350.45691202 0.88678486 -345.59860229 0.8860321 C-337.22764511 0.88551367 -328.85669585 0.8885882 -320.48574066 0.89426994 C-308.38349838 0.90247883 -296.28125984 0.90500965 -284.17901507 0.90625793 C-264.53275268 0.9084339 -244.88649449 0.91505405 -225.24023438 0.92456055 C-206.18229188 0.93377265 -187.12435053 0.94083478 -168.06640625 0.94506836 C-166.29735696 0.94546244 -166.29735696 0.94546244 -164.4925693 0.94586449 C-158.57465178 0.94716975 -152.65673426 0.94843341 -146.73881674 0.94967639 C-97.82587492 0.96000358 -48.91293767 0.97758171 0 1 C0 0.67 0 0.34 0 0 Z " fill="#1E77B0" transform="translate(662,112)"/>
<path d="M0 0 C4.10520608 2.83454705 6.64573183 6.27281683 8.625 10.8125 C9.50450268 15.73771502 9.02276619 19.7851932 6.5 24.125 C3.93185929 27.68909555 1.72987618 30.0212813 -2.375 31.8125 C-7.98142469 32.55282568 -12.70311774 32.58873105 -17.875 30.1875 C-22.55083712 25.74545473 -25.09564392 21.55950148 -25.75 15.125 C-25.66605945 10.06058705 -23.65805288 6.57884493 -20.375 2.8125 C-14.56577839 -2.43644136 -7.1298853 -2.50866334 0 0 Z " fill="#EFF4F6" transform="translate(611.375,638.1875)"/>
<path d="M0 0 C1.20402147 14.677595 1.20402147 14.677595 -2.9375 19.6875 C-9.47913376 25.80366164 -17.81542028 28.34540563 -26.62109375 28.21484375 C-31.72882872 27.75355406 -35.60047416 26.18959696 -39.5 22.875 C-41.61076892 18.82935956 -41.75714724 15.46961115 -41 11 C-39.12696086 6.98634469 -36.49349511 5.52217089 -32.5625 3.8125 C-22.3928253 0.40421011 -10.67978535 -0.08980567 0 0 Z " fill="#247FB9" transform="translate(704,742)"/>
<path d="M0 0 C8.91 0 17.82 0 27 0 C27 33.99 27 67.98 27 103 C18.09 103 9.18 103 0 103 C0 69.01 0 35.02 0 0 Z M2 2 C2 34.67 2 67.34 2 101 C9.59 101 17.18 101 25 101 C25 68.33 25 35.66 25 2 C17.41 2 9.82 2 2 2 Z " fill="#FCFCFB" transform="translate(590,685)"/>
<path d="M0 0 C-1.6837782 2.08950335 -2.55970392 2.92838462 -5.25132006 3.36618346 C-6.14024536 3.36200654 -7.02917065 3.35782961 -7.94503307 3.35352612 C-8.97164112 3.35601587 -9.99824917 3.35850561 -11.05596656 3.36107081 C-12.18727588 3.34844134 -13.31858521 3.33581187 -14.48417664 3.32279968 C-15.68322075 3.3212794 -16.88226487 3.31975913 -18.11764365 3.31819278 C-21.45176142 3.31092348 -24.78530433 3.29010522 -28.11929286 3.26365387 C-31.71228368 3.23841776 -35.30531673 3.23052582 -38.89837646 3.22055054 C-45.12552264 3.20087757 -51.35253635 3.17016295 -57.57959557 3.13199425 C-66.58291399 3.07682438 -75.58624307 3.03823619 -84.58966158 3.003723 C-99.19631517 2.94727911 -113.80287232 2.87738479 -128.40942383 2.79907227 C-142.60015242 2.72301788 -156.79088883 2.65327306 -170.98168945 2.59204102 C-171.85609099 2.58826585 -172.73049252 2.58449068 -173.63139107 2.58060112 C-178.01791161 2.56170165 -182.40443266 2.54292651 -186.79095399 2.52421319 C-223.19407081 2.36875315 -259.59705572 2.1914814 -296 2 C-296 1.67 -296 1.34 -296 1 C-260.02434061 0.87235728 -224.04868043 0.74493824 -188.07301919 0.61781773 C-183.82244248 0.60279807 -179.57186577 0.58777656 -175.32128906 0.57275391 C-174.47510219 0.56976329 -173.62891532 0.56677268 -172.75708643 0.56369144 C-159.06908976 0.51531058 -145.38109362 0.46678035 -131.69309768 0.41819459 C-117.64020608 0.36831696 -103.58731391 0.31860063 -89.53442121 0.26903296 C-80.86824444 0.23846037 -72.20206814 0.20776309 -63.5358924 0.17690456 C-57.58719405 0.1557345 -51.63849516 0.13472159 -45.68979582 0.11383021 C-42.26155772 0.10178592 -38.8333199 0.08967432 -35.4050827 0.07737541 C-31.67831996 0.06404186 -27.95155638 0.05097128 -24.22479248 0.03796387 C-23.15471726 0.03407292 -22.08464204 0.03018197 -20.9821403 0.02617311 C-13.98806739 0.00212685 -6.99411206 -0.00425233 0 0 Z " fill="#3790C3" transform="translate(702,554)"/>
<path d="M0 0 C0.33 0 0.66 0 1 0 C1 34.32 1 68.64 1 104 C-2.29734646 105.09911549 -4.72958745 105.1139456 -8.19921875 105.09765625 C-10.01196289 105.09282227 -10.01196289 105.09282227 -11.86132812 105.08789062 C-13.7552832 105.07532227 -13.7552832 105.07532227 -15.6875 105.0625 C-17.59885742 105.05573242 -17.59885742 105.05573242 -19.54882812 105.04882812 C-22.69926564 105.03702873 -25.84960949 105.02056597 -29 105 C-28.67 104.01 -28.34 103.02 -28 102 C-19.09 102 -10.18 102 -1 102 C-0.67 68.34 -0.34 34.68 0 0 Z " fill="#1478B7" transform="translate(618,685)"/>
<path d="M0 0 C1.20970459 0.00523682 2.41940918 0.01047363 3.66577148 0.01586914 C4.97094727 0.0190918 6.27612305 0.02231445 7.62084961 0.02563477 C9.00952213 0.03399138 10.39819401 0.04245634 11.78686523 0.05102539 C13.17944179 0.05603873 14.57202005 0.06060193 15.96459961 0.06469727 C19.38456394 0.07653105 22.80444367 0.09301659 26.22436523 0.11352539 C26.55436523 1.10352539 26.88436523 2.09352539 27.22436523 3.11352539 C27.88436523 3.11352539 28.54436523 3.11352539 29.22436523 3.11352539 C28.89436523 5.09352539 28.56436523 7.07352539 28.22436523 9.11352539 C27.56436523 8.45352539 26.90436523 7.79352539 26.22436523 7.11352539 C26.22436523 5.46352539 26.22436523 3.81352539 26.22436523 2.11352539 C16.65436523 2.11352539 7.08436523 2.11352539 -2.77563477 2.11352539 C-2.44563477 5.41352539 -2.11563477 8.71352539 -1.77563477 12.11352539 C-4.47025462 8.07159561 -4.00764366 5.90837579 -3.77563477 1.11352539 C-2.77563477 0.11352539 -2.77563477 0.11352539 0 0 Z " fill="#0E67AB" transform="translate(237.775634765625,746.886474609375)"/>
<path d="M0 0 C3.12110979 4.16147972 3.37789882 4.80251588 3.36328125 9.6484375 C3.36263672 10.73640625 3.36199219 11.824375 3.36132812 12.9453125 C3.34521484 14.07710938 3.32910156 15.20890625 3.3125 16.375 C3.31572266 17.4990625 3.31894531 18.623125 3.32226562 19.78125 C3.28700575 25.20485915 3.23846475 29.95230657 1 35 C0.67 35 0.34 35 0 35 C0 23.45 0 11.9 0 0 Z " fill="#247EB4" transform="translate(235,318)"/>
<path d="M0 0 C0.33 0 0.66 0 1 0 C1.11459026 7.41017023 0.91160286 14.64206267 0 22 C0.66 22 1.32 22 2 22 C2.66 23.98 3.32 25.96 4 28 C7.3 28.33 10.6 28.66 14 29 C10.95070794 31.03286137 10.00154993 31.33828942 6.5 31.4375 C5.7265625 31.47746094 4.953125 31.51742188 4.15625 31.55859375 C2 31 2 31 0.234375 28.91796875 C-1.27121328 25.35887239 -1.3305411 22.73291871 -1.25 18.875 C-1.22421875 17.56144531 -1.1984375 16.24789063 -1.171875 14.89453125 C-0.9517841 9.90747145 -0.57725246 4.95818631 0 0 Z " fill="#3990C2" transform="translate(322,463)"/>
<path d="M0 0 C8.58 0 17.16 0 26 0 C26 1.98 26 3.96 26 6 C25.34 4.68 24.68 3.36 24 2 C16.08 2 8.16 2 0 2 C0 1.34 0 0.68 0 0 Z " fill="#F8FAFB" transform="translate(238,749)"/>
<path d="M0 0 C0.33 0 0.66 0 1 0 C1 8.25 1 16.5 1 25 C0.34 25 -0.32 25 -1 25 C-1 27.97 -1 30.94 -1 34 C-1.33 34 -1.66 34 -2 34 C-2.22379488 22.44969732 -1.91025574 11.4103669 0 0 Z " fill="#3B96C7" transform="translate(498,455)"/>
<path d="M0 0 C3.31216727 0.98469838 4.73502323 1.62146175 6.75 4.5 C9.33733881 9.67467762 9.07505875 13.14541761 9 19 C5.7 19 2.4 19 -1 19 C-1 18.67 -1 18.34 -1 18 C-0.21625 17.855625 0.5675 17.71125 1.375 17.5625 C3.96421018 17.12201075 3.96421018 17.12201075 6 16 C6.37865071 9.00628444 6.37865071 9.00628444 3 3 C2.34 3 1.68 3 1 3 C0.67 2.01 0.34 1.02 0 0 Z " fill="#1463A8" transform="translate(695,706)"/>
<path d="M0 0 C3.20137311 3.44138378 3.35599742 5.89352274 3.29296875 10.515625 C3.28330078 11.76601563 3.27363281 13.01640625 3.26367188 14.3046875 C3.23853516 15.60664063 3.21339844 16.90859375 3.1875 18.25 C3.16719727 20.22613281 3.16719727 20.22613281 3.14648438 22.2421875 C3.11112551 25.49520321 3.06177033 28.747396 3 32 C2.67 32 2.34 32 2 32 C1.66285491 27.79196298 1.33095755 23.58352782 1 19.375 C0.90460937 18.18519531 0.80921875 16.99539063 0.7109375 15.76953125 C0.62070312 14.61582031 0.53046875 13.46210938 0.4375 12.2734375 C0.35371094 11.21560059 0.26992188 10.15776367 0.18359375 9.06787109 C0.00220986 6.03692697 -0.03182747 3.03554529 0 0 Z " fill="#1975AE" transform="translate(712,456)"/>
<path d="M0 0 C0.33 0 0.66 0 1 0 C1 3.63 1 7.26 1 11 C0.34 11 -0.32 11 -1 11 C-0.98839844 11.9178125 -0.97679687 12.835625 -0.96484375 13.78125 C-0.91698507 20.29003027 -0.97099303 26.56870645 -2 33 C-2.33 33 -2.66 33 -3 33 C-3.33082999 21.506721 -3.06025293 11.16628003 0 0 Z " fill="#1C78B0" transform="translate(238,271)"/>
<path d="M0 0 C1.2065625 0.0309375 1.2065625 0.0309375 2.4375 0.0625 C2.4375 1.0525 2.4375 2.0425 2.4375 3.0625 C-5.4593823 4.56666806 -15.35080405 6.01225126 -22.5625 2.0625 C-21.99217041 2.03744385 -21.42184082 2.0123877 -20.83422852 1.98657227 C-18.26423843 1.87093451 -15.69464473 1.74806376 -13.125 1.625 C-12.22716797 1.58568359 -11.32933594 1.54636719 -10.40429688 1.50585938 C-9.55029297 1.46396484 -8.69628906 1.42207031 -7.81640625 1.37890625 C-7.02564697 1.34224854 -6.2348877 1.30559082 -5.42016602 1.26782227 C-2.82760296 0.98127403 -2.85788876 0.0697046 0 0 Z " fill="#E2EBF0" transform="translate(301.5625,786.9375)"/>
<path d="M0 0 C-0.59554687 0.25523437 -1.19109375 0.51046875 -1.8046875 0.7734375 C-4.21483731 2.12003366 -5.42876502 3.46696283 -7.125 5.625 C-8.6328125 7.5390625 -8.6328125 7.5390625 -10 9 C-10.66 9 -11.32 9 -12 9 C-12.99 12.3 -13.98 15.6 -15 19 C-15.33 19 -15.66 19 -16 19 C-15.6973513 11.88775552 -12.62682048 6.33911597 -7.375 1.50390625 C-4.41855005 -0.63212884 -3.57114285 -1.19038095 0 0 Z " fill="#1263A8" transform="translate(521,709)"/>
<path d="M0 0 C5.875 0.875 5.875 0.875 7 2 C9.52596259 2.23653523 12.03107207 2.42173692 14.5625 2.5625 C15.27341797 2.60568359 15.98433594 2.64886719 16.71679688 2.69335938 C18.47761912 2.79971777 20.2387832 2.90038846 22 3 C17.19488782 6.20340812 11.91829749 5.49782722 6.34375 4.546875 C4.21445462 4.07519564 2.10505092 3.56948237 0 3 C0 2.01 0 1.02 0 0 Z " fill="#E1EBF1" transform="translate(657,786)"/>
<path d="M0 0 C1.0725 -0.01417969 2.145 -0.02835938 3.25 -0.04296875 C6 0.1875 6 0.1875 8 2.1875 C5.41246844 3.48126578 3.45041015 3.35582397 0.5625 3.375 C-0.40558594 3.38917969 -1.37367188 3.40335938 -2.37109375 3.41796875 C-5 3.1875 -5 3.1875 -8 1.1875 C-5.27457733 -0.17521133 -3.03912726 0.01826399 0 0 Z " fill="#E4EDF1" transform="translate(528,787.8125)"/>
<path d="M0 0 C0.33 0.99 0.66 1.98 1 3 C2.99665314 4.68538601 2.99665314 4.68538601 5 6 C1.08428299 7.305239 -0.03892997 6.32239848 -3.6875 4.5625 C-4.68136719 4.08941406 -5.67523437 3.61632812 -6.69921875 3.12890625 C-7.45847656 2.75636719 -8.21773437 2.38382812 -9 2 C-9 1.67 -9 1.34 -9 1 C-5.846632 0.29925156 -3.27275026 0 0 0 Z " fill="#3186B9" transform="translate(824,120)"/>
<path d="M0 0 C0.99 0 1.98 0 3 0 C3 4.62 3 9.24 3 14 C2.01 14 1.02 14 0 14 C0 9.38 0 4.76 0 0 Z " fill="#E4ECF0" transform="translate(238,682)"/>
<path d="M0 0 C2.5570851 2.22355226 3.24170912 3.75018193 4 7 C4.66 7.33 5.32 7.66 6 8 C6.625 11.0625 6.625 11.0625 7 14 C4 13 4 13 2.83203125 11.07421875 C2.49558594 10.28660156 2.15914062 9.49898437 1.8125 8.6875 C1.46832031 7.90761719 1.12414062 7.12773437 0.76953125 6.32421875 C0 4 0 4 0 0 Z " fill="#3186B7" transform="translate(872,167)"/>
<path d="M0 0 C1.65 0 3.3 0 5 0 C4.57781184 1.6498275 4.13675575 3.29483665 3.6875 4.9375 C3.44386719 5.85402344 3.20023438 6.77054687 2.94921875 7.71484375 C2.63597656 8.46894531 2.32273437 9.22304688 2 10 C1.01 10.33 0.02 10.66 -1 11 C-1.0270043 9.54176788 -1.04639787 8.08339325 -1.0625 6.625 C-1.07410156 5.81289063 -1.08570313 5.00078125 -1.09765625 4.1640625 C-1 2 -1 2 0 0 Z M0 3 C1 5 1 5 1 5 Z " fill="#368DC0" transform="translate(546,280)"/>
<path d="M0 0 C5.13503344 0.64187918 9.9943454 1.68272247 15 3 C15 3.33 15 3.66 15 4 C4.84682713 4.63019694 4.84682713 4.63019694 1.3125 2 C0.879375 1.34 0.44625 0.68 0 0 Z " fill="#297FB4" transform="translate(212,872)"/>
<path d="M0 0 C0.3690205 10.55808656 0.3690205 10.55808656 -2 15 C-2.33 15 -2.66 15 -3 15 C-3 10.38 -3 5.76 -3 1 C-1 0 -1 0 0 0 Z " fill="#E2ECF1" transform="translate(462,727)"/>
<path d="M0 0 C0.66 0 1.32 0 2 0 C2.66 4.62 3.32 9.24 4 14 C3.01 13.67 2.02 13.34 1 13 C-0.32229189 10.35541621 -0.09677194 8.32238699 -0.0625 5.375 C-0.05347656 4.37210937 -0.04445313 3.36921875 -0.03515625 2.3359375 C-0.02355469 1.56507813 -0.01195312 0.79421875 0 0 Z " fill="#2481B7" transform="translate(497,480)"/>
<path d="M0 0 C7.48291572 6.15034169 7.48291572 6.15034169 10 10 C5.73794894 9.52643877 3.71306207 7.15301808 1 4 C0.35546875 1.83203125 0.35546875 1.83203125 0 0 Z " fill="#277FB5" transform="translate(164,840)"/>
<path d="M0 0 C0.33 0 0.66 0 1 0 C1.38289206 9.76374745 1.38289206 9.76374745 -1 14 C-1.99 14.495 -1.99 14.495 -3 15 C-2.22225866 9.94468132 -1.14051606 4.98283716 0 0 Z " fill="#257CB1" transform="translate(882,790)"/>
<path d="M0 0 C2.48709896 3.73064844 2.29991053 5.57631968 2 10 C1 13.4375 1 13.4375 0 16 C-0.33 16 -0.66 16 -1 16 C-1.02712153 14.083412 -1.04645097 12.1667127 -1.0625 10.25 C-1.07410156 9.18265625 -1.08570313 8.1153125 -1.09765625 7.015625 C-1.01510087 4.46631499 -0.74617558 2.42066409 0 0 Z " fill="#DCE7EF" transform="translate(637,750)"/>
<path d="M0 0 C0.33 0 0.66 0 1 0 C1.2210949 2.95789127 1.42740245 5.91552764 1.625 8.875 C1.68945312 9.71675781 1.75390625 10.55851563 1.8203125 11.42578125 C1.871875 12.23144531 1.9234375 13.03710938 1.9765625 13.8671875 C2.02893066 14.61081543 2.08129883 15.35444336 2.13525391 16.12060547 C2 18 2 18 0 20 C-1.13896163 15.65507229 -0.93100471 11.61379215 -0.5625 7.1875 C-0.51029297 6.49462891 -0.45808594 5.80175781 -0.40429688 5.08789062 C-0.27560181 3.39145563 -0.13863816 1.69565137 0 0 Z " fill="#D7E3EB" transform="translate(434,732)"/>
<path d="M0 0 C0.33 0 0.66 0 1 0 C1.22142255 1.95689659 1.4267568 3.91561952 1.625 5.875 C1.74101562 6.96554687 1.85703125 8.05609375 1.9765625 9.1796875 C1.98429687 10.11039062 1.99203125 11.04109375 2 12 C1.34 12.66 0.68 13.32 0 14 C-1.32 14 -2.64 14 -4 14 C-4 13.34 -4 12.68 -4 12 C-3.01 11.67 -2.02 11.34 -1 11 C-0.67 7.37 -0.34 3.74 0 0 Z " fill="#227EB5" transform="translate(478,480)"/>
<path d="M0 0 C0.66 0.99 1.32 1.98 2 3 C-1.28804981 5.91227269 -3.59885603 7.49701212 -8 8 C-5.33333333 5.33333333 -2.66666667 2.66666667 0 0 Z " fill="#166BAC" transform="translate(334,774)"/>
<path d="M0 0 C-2.10384698 0.81332743 -4.20808857 1.62563417 -6.3125 2.4375 C-8.07013672 3.11619141 -8.07013672 3.11619141 -9.86328125 3.80859375 C-11.89382815 4.57984755 -13.93937926 5.31312642 -16 6 C-16 5.01 -16 4.02 -16 3 C-14.08802961 2.29954544 -12.17019565 1.615081 -10.25 0.9375 C-9.18265625 0.55464844 -8.1153125 0.17179688 -7.015625 -0.22265625 C-4.07719958 -0.98010011 -2.77651052 -1.07151741 0 0 Z " fill="#0D5CA5" transform="translate(671,685)"/>
<path d="M0 0 C1.32 0.99 2.64 1.98 4 3 C-0.29 3 -4.58 3 -9 3 C-9.33 2.34 -9.66 1.68 -10 1 C-6.59994504 0.22284458 -3.48499441 -0.35743532 0 0 Z " fill="#E5EDF2" transform="translate(281,649)"/>
<path d="M0 0 C1 2 1 2 0.3125 4.5 C-1.15567038 7.29651501 -2.09303901 7.93411431 -5 9 C-5.66 8.34 -6.32 7.68 -7 7 C-4.69 4.69 -2.38 2.38 0 0 Z " fill="#328DC1" transform="translate(762,519)"/>
<path d="M0 0 C2.54384726 1.27192363 2.69368156 2.19948469 3.6875 4.8125 C3.95949219 5.49957031 4.23148438 6.18664062 4.51171875 6.89453125 C5.06812731 9.29376496 4.77364938 10.6894364 4 13 C3.32404685 11.58774074 2.65959941 10.16997095 2 8.75 C1.62875 7.96109375 1.2575 7.1721875 0.875 6.359375 C0 4 0 4 0 0 Z " fill="#227CB3" transform="translate(779,257)"/>
<path d="M0 0 C0.99 0.33 1.98 0.66 3 1 C0.36 3.97 -2.28 6.94 -5 10 C-5.33 9.01 -5.66 8.02 -6 7 C-4.78515625 5.17578125 -4.78515625 5.17578125 -3.0625 3.3125 C-2.49660156 2.68988281 -1.93070313 2.06726563 -1.34765625 1.42578125 C-0.90292969 0.95527344 -0.45820313 0.48476562 0 0 Z " fill="#2A81B4" transform="translate(165,147)"/>
<path d="M0 0 C1.77155654 0.11429397 3.54226229 0.24183037 5.3125 0.375 C6.79169922 0.47941406 6.79169922 0.47941406 8.30078125 0.5859375 C11 1 11 1 14 3 C10.01611946 3.83383546 6.91159585 4.26862568 3 3 C1.9698824 2.03105328 0.96464654 1.03414557 0 0 Z " fill="#3A8EC0" transform="translate(795,115)"/>
<path d="M0 0 C0 0.33 0 0.66 0 1 C-1.91345327 1.53251766 -3.8309295 2.05059483 -5.75 2.5625 C-6.81734375 2.85253906 -7.8846875 3.14257812 -8.984375 3.44140625 C-11.84335927 3.97098494 -13.31597383 3.98370862 -16 3 C-10.62669111 -0.39366878 -6.13053511 -0.32712342 0 0 Z " fill="#1C7AB4" transform="translate(579,384)"/>
<path d="M0 0 C0.33 0.99 0.66 1.98 1 3 C0.34 3.66 -0.32 4.32 -1 5 C-3.8203125 4.9765625 -3.8203125 4.9765625 -7.125 4.625 C-8.22070312 4.51414062 -9.31640625 4.40328125 -10.4453125 4.2890625 C-11.70988281 4.14597656 -11.70988281 4.14597656 -13 4 C-13 3.67 -13 3.34 -13 3 C-12.22914063 2.95101563 -11.45828125 2.90203125 -10.6640625 2.8515625 C-9.66117188 2.77679688 -8.65828125 2.70203125 -7.625 2.625 C-6.62726562 2.55539062 -5.62953125 2.48578125 -4.6015625 2.4140625 C-1.84491121 2.23636036 -1.84491121 2.23636036 0 0 Z " fill="#1F7BB4" transform="translate(713,489)"/>
<path d="M0 0 C0.66 0.33 1.32 0.66 2 1 C0.35 2.98 -1.3 4.96 -3 7 C-4.32 6.67 -5.64 6.34 -7 6 C-4.69 4.02 -2.38 2.04 0 0 Z " fill="#3990C3" transform="translate(332,612)"/>
<path d="M0 0 C3.63 0.33 7.26 0.66 11 1 C11 1.33 11 1.66 11 2 C5.06 2.495 5.06 2.495 -1 3 C-0.67 2.01 -0.34 1.02 0 0 Z " fill="#388FC1" transform="translate(790,875)"/>
<path d="M0 0 C1.32 0.33 2.64 0.66 4 1 C-0.455 3.97 -0.455 3.97 -5 7 C-5 6.01 -5 5.02 -5 4 C-2.75 1.75 -2.75 1.75 0 0 Z " fill="#247EB7" transform="translate(531,402)"/>
<path d="M0 0 C-1.77444972 2.24606427 -2.58352485 2.95081002 -5.48046875 3.29296875 C-6.37378906 3.25816406 -7.26710938 3.22335937 -8.1875 3.1875 C-9.08855469 3.16042969 -9.98960937 3.13335938 -10.91796875 3.10546875 C-11.94857422 3.05326172 -11.94857422 3.05326172 -13 3 C-13 2.67 -13 2.34 -13 2 C-4.57142857 -0.28571429 -4.57142857 -0.28571429 0 0 Z " fill="#2079B0" transform="translate(808,873)"/>
<path d="M0 0 C2.15377564 2.62198774 3.40072174 4.64404172 4 8 C2.35 7.67 0.7 7.34 -1 7 C-1.625 5.1875 -1.625 5.1875 -2 3 C-1.34 2.01 -0.68 1.02 0 0 Z " fill="#2B7EB0" transform="translate(148,815)"/>
<path d="M0 0 C2.95183101 2.95183101 3.08663988 5.95511947 4 10 C3.01 9.67 2.02 9.34 1 9 C-0.4783226 6.04335481 -0.06032783 3.25770263 0 0 Z " fill="#277DB1" transform="translate(142,799)"/>
<path d="M0 0 C3.3 0 6.6 0 10 0 C7 3 7 3 4.95703125 3.07421875 C1.97851562 2.53710938 1.97851562 2.53710938 -1 2 C-0.67 1.34 -0.34 0.68 0 0 Z " fill="#3E96C7" transform="translate(692,554)"/>
<path d="M0 0 C0.66 0 1.32 0 2 0 C1.67 3.3 1.34 6.6 1 10 C0.34 9.67 -0.32 9.34 -1 9 C-0.67 6.03 -0.34 3.06 0 0 Z " fill="#2A80B4" transform="translate(141,189)"/>
<path d="M0 0 C0.33 0.99 0.66 1.98 1 3 C-0.8125 6.1875 -0.8125 6.1875 -3 9 C-3.66 9 -4.32 9 -5 9 C-3.7508258 5.54074837 -2.32472205 2.85306797 0 0 Z " fill="#287FB4" transform="translate(869,826)"/>
<path d="M0 0 C2.375 0.3125 2.375 0.3125 5 1 C7 4 7 4 6.625 6.1875 C6.41875 6.785625 6.2125 7.38375 6 8 C5.566875 7.195625 5.13375 6.39125 4.6875 5.5625 C3.19525998 2.72153646 3.19525998 2.72153646 0 2 C0 1.34 0 0.68 0 0 Z " fill="#3588B9" transform="translate(148,822)"/>
<path d="M0 0 C0.33 0 0.66 0 1 0 C1.0270043 1.45823212 1.04639787 2.91660675 1.0625 4.375 C1.07410156 5.18710937 1.08570313 5.99921875 1.09765625 6.8359375 C1 9 1 9 0 11 C-0.66 11 -1.32 11 -2 11 C-1.34 7.37 -0.68 3.74 0 0 Z " fill="#247EB4" transform="translate(666,315)"/>
<path d="M0 0 C1.485 0.99 1.485 0.99 3 2 C3.29296875 4.1640625 3.29296875 4.1640625 3.1875 6.625 C3.16042969 7.44226563 3.13335937 8.25953125 3.10546875 9.1015625 C3.07066406 9.72804688 3.03585937 10.35453125 3 11 C0.43383368 7.15075052 0.44902324 4.5650696 0 0 Z " fill="#1D79B0" transform="translate(472,305)"/>
<path d="M0 0 C1.09898702 3.29696105 0.87124444 4.40494903 0.0625 7.6875 C-0.22947266 8.89986328 -0.22947266 8.89986328 -0.52734375 10.13671875 C-0.68332031 10.75160156 -0.83929688 11.36648438 -1 12 C-1.33 12 -1.66 12 -2 12 C-2.74926071 8.33694766 -3.2380014 5.57644848 -2 2 C-1.34 2 -0.68 2 0 2 C0 1.34 0 0.68 0 0 Z " fill="#3991C3" transform="translate(241,264)"/>
<path d="M0 0 C3.77545388 1.09068668 6.47043472 1.9083091 9 5 C5.26512223 4.5020163 3.18762365 4.12508244 0 2 C0 1.34 0 0.68 0 0 Z " fill="#338DC1" transform="translate(630,247)"/>
<path d="M0 0 C0 3.99904969 -1.72586967 5.80200422 -4 9 C-4.8125 7.3125 -4.8125 7.3125 -5 5 C-2.5625 2.25 -2.5625 2.25 0 0 Z " fill="#267DB4" transform="translate(155,162)"/>
<path d="M0 0 C2.12038635 2.61514317 4.13091744 5.19637616 6 8 C5.01 8 4.02 8 3 8 C3 7.34 3 6.68 3 6 C2.34 6 1.68 6 1 6 C0.34 4.35 -0.32 2.7 -1 1 C-0.67 0.67 -0.34 0.34 0 0 Z " fill="#E0EAF1" transform="translate(264,754)"/>
<path d="M0 0 C0.66 0.33 1.32 0.66 2 1 C0.02 3.97 0.02 3.97 -2 7 C-2.66 6.67 -3.32 6.34 -4 6 C-4 5.01 -4 4.02 -4 3 C-2 1.3125 -2 1.3125 0 0 Z " fill="#348FC3" transform="translate(746,534)"/>
<path d="M0 0 C5.53846154 0.61538462 5.53846154 0.61538462 7.875 2.5625 C8.431875 3.2740625 8.431875 3.2740625 9 4 C8.67 4.66 8.34 5.32 8 6 C6.66402348 5.19185349 5.331275 4.37836819 4 3.5625 C3.2575 3.11003906 2.515 2.65757812 1.75 2.19140625 C1.1725 1.79824219 0.595 1.40507812 0 1 C0 0.67 0 0.34 0 0 Z " fill="#217FB6" transform="translate(447,276)"/>
<path d="M0 0 C-2.97 0.66 -5.94 1.32 -9 2 C-8.67 1.01 -8.34 0.02 -8 -1 C-4.40321889 -2.61235015 -3.79177789 -1.89588895 0 0 Z " fill="#3489BA" transform="translate(815,873)"/>
<path d="M0 0 C0.33 0.99 0.66 1.98 1 3 C-1.3125 5.0625 -1.3125 5.0625 -4 7 C-4.99 6.67 -5.98 6.34 -7 6 C-4.69 4.02 -2.38 2.04 0 0 Z " fill="#247BB1" transform="translate(852,847)"/>
<path d="M0 0 C1.875 0.3125 1.875 0.3125 4 1 C4.66 1.99 5.32 2.98 6 4 C5.67 4.99 5.34 5.98 5 7 C0 1.125 0 1.125 0 0 Z " fill="#3185B8" transform="translate(155,831)"/>
<path d="M0 0 C2.4375 1.1875 2.4375 1.1875 5 3 C5.8125 5.6875 5.8125 5.6875 6 8 C1.125 3.375 1.125 3.375 0 0 Z " fill="#237FB7" transform="translate(254,514)"/>
<path d="M0 0 C1.24546405 2.49092811 0.7767578 3.41080733 0 6 C0.66 6 1.32 6 2 6 C1.67 7.98 1.34 9.96 1 12 C-1.32488647 8.36736489 -1.23961213 5.23314767 -1 1 C-0.67 0.67 -0.34 0.34 0 0 Z " fill="#3A93C4" transform="translate(546,313)"/>
<path d="M0 0 C2.88437779 1.29299694 4.87219421 2.65941363 7 5 C6.67 5.66 6.34 6.32 6 7 C3.95880212 5.38405168 1.95927063 3.7143618 0 2 C0 1.34 0 0.68 0 0 Z " fill="#328CC0" transform="translate(650,262)"/>
<path d="M0 0 C-3.26545761 1.88391785 -6.28111761 2.49287967 -10 3 C-10 2.34 -10 1.68 -10 1 C-6.78548731 -0.60725635 -3.56387464 -0.05748185 0 0 Z " fill="#358EC2" transform="translate(317,195)"/>
<path d="M0 0 C-4.625 3 -4.625 3 -8 3 C-7.67 2.01 -7.34 1.02 -7 0 C-3.86650268 -1.04449911 -3.01031744 -0.93423645 0 0 Z " fill="#2B82B6" transform="translate(202,124)"/>
<path d="M0 0 C0.33 0 0.66 0 1 0 C1 3.3 1 6.6 1 10 C0.67 10 0.34 10 0 10 C0 6.7 0 3.4 0 0 Z " fill="#418FBA" transform="translate(136,778)"/>
<path d="M0 0 C0.66 1.32 1.32 2.64 2 4 C1.34 4.66 0.68 5.32 0 6 C0 4.02 0 2.04 0 0 Z " fill="#4496C4" transform="translate(368,342)"/>
<path d="M0 0 C0.33 0 0.66 0 1 0 C1 2.31 1 4.62 1 7 C0.67 7 0.34 7 0 7 C0 4.69 0 2.38 0 0 Z " fill="#479AC7" transform="translate(320,464)"/>
<path d="M0 0 C0.33 0 0.66 0 1 0 C1 1.98 1 3.96 1 6 C0.67 6 0.34 6 0 6 C0 4.02 0 2.04 0 0 Z " fill="#3B8DBC" transform="translate(887,696)"/>
<path d="M0 0 C0.33 0 0.66 0 1 0 C1 1.98 1 3.96 1 6 C0.67 6 0.34 6 0 6 C0 4.02 0 2.04 0 0 Z " fill="#3E8FBD" transform="translate(887,593)"/>
<path d="M0 0 C0.66 1.32 1.32 2.64 2 4 C1.01 3.34 0.02 2.68 -1 2 C-0.67 1.34 -0.34 0.68 0 0 Z " fill="#4198C7" transform="translate(548,332)"/>
<path d="M0 0 C0.33 0 0.66 0 1 0 C1 1.98 1 3.96 1 6 C0.67 6 0.34 6 0 6 C0 4.02 0 2.04 0 0 Z " fill="#4598C5" transform="translate(364,322)"/>
<path d="M0 0 C0.33 0 0.66 0 1 0 C1 1.98 1 3.96 1 6 C0.67 6 0.34 6 0 6 C0 4.02 0 2.04 0 0 Z " fill="#4099C7" transform="translate(239,282)"/>
<path d="M0 0 C1.32 0.33 2.64 0.66 4 1 C2.68 1 1.36 1 0 1 C0 0.67 0 0.34 0 0 Z " fill="#4299C9" transform="translate(704,197)"/>
<path d="M0 0 C0.99 0.33 1.98 0.66 3 1 C2.01 1.33 1.02 1.66 0 2 C0 1.34 0 0.68 0 0 Z " fill="#3D8CBB" transform="translate(224,878)"/>
<path d="M0 0 C0.33 1.32 0.66 2.64 1 4 C0.34 3.67 -0.32 3.34 -1 3 C-0.67 2.01 -0.34 1.02 0 0 Z " fill="#3E8BB6" transform="translate(138,794)"/>
<path d="M0 0 C0.33 0 0.66 0 1 0 C1 1.65 1 3.3 1 5 C0.67 5 0.34 5 0 5 C0 3.35 0 1.7 0 0 Z " fill="#3E8EBC" transform="translate(887,520)"/>
<path d="M0 0 C0.33 0 0.66 0 1 0 C1 1.65 1 3.3 1 5 C0.67 5 0.34 5 0 5 C0 3.35 0 1.7 0 0 Z " fill="#3E8EBC" transform="translate(887,506)"/>
<path d="M0 0 C0.66 0 1.32 0 2 0 C1.67 0.99 1.34 1.98 1 3 C0.67 2.01 0.34 1.02 0 0 Z " fill="#459AC8" transform="translate(552,341)"/>
<path d="M0 0 C1.32 0.33 2.64 0.66 4 1 C2.68 1.33 1.36 1.66 0 2 C0 1.34 0 0.68 0 0 Z " fill="#408BB7" transform="translate(198,120)"/>
<path d="M0 0 C1.485 0.99 1.485 0.99 3 2 C1.68 1.67 0.36 1.34 -1 1 C-0.67 0.67 -0.34 0.34 0 0 Z " fill="#408DB9" transform="translate(224,112)"/>
<path d="M0 0 C4 1 4 1 4 1 Z " fill="#3F8CB9" transform="translate(216,877)"/>
<path d="M0 0 C0.66 0 1.32 0 2 0 C1.67 0.99 1.34 1.98 1 3 C0.67 2.01 0.34 1.02 0 0 Z " fill="#3F8BB8" transform="translate(194,868)"/>
<path d="M0 0 C1 4 1 4 1 4 Z " fill="#3E8AB8" transform="translate(886,784)"/>
<path d="M0 0 C1 4 1 4 1 4 Z " fill="#3C8BB9" transform="translate(887,760)"/>
<path d="M0 0 C1 4 1 4 1 4 Z " fill="#3C8CBB" transform="translate(887,744)"/>
<path d="M0 0 C1 4 1 4 1 4 Z " fill="#3C8EBC" transform="translate(887,721)"/>
<path d="M0 0 C1 4 1 4 1 4 Z " fill="#3C8FBD" transform="translate(887,691)"/>
<path d="M0 0 C1 4 1 4 1 4 Z " fill="#3B8CBA" transform="translate(887,632)"/>
<path d="M0 0 C1 4 1 4 1 4 Z " fill="#3D8EBC" transform="translate(887,570)"/>
<path d="M0 0 C1 4 1 4 1 4 Z " fill="#3C8DBA" transform="translate(887,560)"/>
<path d="M0 0 C4 1 4 1 4 1 Z " fill="#499DCA" transform="translate(696,552)"/>
<path d="M0 0 C1 4 1 4 1 4 Z " fill="#3C8DBC" transform="translate(887,488)"/>
<path d="M0 0 C1 4 1 4 1 4 Z " fill="#3E8FBD" transform="translate(887,472)"/>
<path d="M0 0 C1 4 1 4 1 4 Z " fill="#3C8FBD" transform="translate(887,466)"/>
<path d="M0 0 C1 4 1 4 1 4 Z " fill="#3F96C6" transform="translate(239,466)"/>
<path d="M0 0 C1 4 1 4 1 4 Z " fill="#4399C8" transform="translate(497,450)"/>
<path d="M0 0 C0.66 0.33 1.32 0.66 2 1 C1.01 1 0.02 1 -1 1 C-0.67 0.67 -0.34 0.34 0 0 Z " fill="#469BC9" transform="translate(521,408)"/>
<path d="M0 0 C0.66 0.33 1.32 0.66 2 1 C1.01 1 0.02 1 -1 1 C-0.67 0.67 -0.34 0.34 0 0 Z " fill="#439BC8" transform="translate(542,392)"/>
<path d="M0 0 C4 1 4 1 4 1 Z " fill="#459BC9" transform="translate(384,392)"/>
<path d="M0 0 C1 4 1 4 1 4 Z " fill="#4499C9" transform="translate(670,299)"/>
<path d="M0 0 C0.99 0.495 0.99 0.495 2 1 C1.67 1.66 1.34 2.32 1 3 C0.67 2.01 0.34 1.02 0 0 Z " fill="#4598C8" transform="translate(768,242)"/>
<path d="M0 0 C1 4 1 4 1 4 Z " fill="#3F8DBA" transform="translate(887,217)"/>
<path d="M0 0 C4 1 4 1 4 1 Z " fill="#408DB9" transform="translate(230,112)"/>
<path d="M0 0 C0.66 0.66 1.32 1.32 2 2 C1.34 2 0.68 2 0 2 C0 1.34 0 0.68 0 0 Z " fill="#3F8AB8" transform="translate(185,862)"/>
<path d="M0 0 C0.66 0.66 1.32 1.32 2 2 C1.34 2 0.68 2 0 2 C0 1.34 0 0.68 0 0 Z " fill="#3F8BB6" transform="translate(163,844)"/>
<path d="" fill="#3E8AB6" transform="translate(0,0)"/>
<path d="" fill="#3D8DBC" transform="translate(0,0)"/>
<path d="" fill="#3F8EBB" transform="translate(0,0)"/>
<path d="" fill="#3B8FBB" transform="translate(0,0)"/>
<path d="" fill="#3D8BB9" transform="translate(0,0)"/>
<path d="" fill="#3E8BB7" transform="translate(0,0)"/>
<path d="" fill="#3D8BB7" transform="translate(0,0)"/>
<path d="" fill="#3E8DB9" transform="translate(0,0)"/>
<path d="M0 0 C0.66 0.66 1.32 1.32 2 2 C1.34 2 0.68 2 0 2 C0 1.34 0 0.68 0 0 Z " fill="#4897C7" transform="translate(320,490)"/>
<path d="" fill="#3C8FBE" transform="translate(0,0)"/>
<path d="" fill="#3C8BB8" transform="translate(0,0)"/>
<path d="" fill="#3B8CB8" transform="translate(0,0)"/>
<path d="" fill="#4596C3" transform="translate(0,0)"/>
<path d="" fill="#3C8CB9" transform="translate(0,0)"/>
<path d="M0 0 C0.66 0.66 1.32 1.32 2 2 C1.34 2 0.68 2 0 2 C0 1.34 0 0.68 0 0 Z " fill="#4597C6" transform="translate(336,424)"/>
<path d="M0 0 C0.99 0.495 0.99 0.495 2 1 C1.01 1.495 1.01 1.495 0 2 C0 1.34 0 0.68 0 0 Z " fill="#459BC9" transform="translate(537,395)"/>
<path d="M0 0 C0.66 0 1.32 0 2 0 C1.67 0.66 1.34 1.32 1 2 C0.67 1.34 0.34 0.68 0 0 Z " fill="#449CC9" transform="translate(417,379)"/>
<path d="M0 0 C0.99 0.495 0.99 0.495 2 1 C1.01 1.495 1.01 1.495 0 2 C0 1.34 0 0.68 0 0 Z " fill="#439ACA" transform="translate(393,372)"/>
<path d="M0 0 C0.66 0.66 1.32 1.32 2 2 C1.34 2 0.68 2 0 2 C0 1.34 0 0.68 0 0 Z " fill="#4299CA" transform="translate(579,366)"/>
<path d="M0 0 C0.66 0 1.32 0 2 0 C1.67 0.66 1.34 1.32 1 2 C0.67 1.34 0.34 0.68 0 0 Z " fill="#439ACA" transform="translate(576,363)"/>
<path d="" fill="#3C8BB8" transform="translate(0,0)"/>
<path d="" fill="#3E8CB8" transform="translate(0,0)"/>
<path d="" fill="#3E8AB7" transform="translate(0,0)"/>
<path d="M0 0 C0.66 0.66 1.32 1.32 2 2 C1.34 2 0.68 2 0 2 C0 1.34 0 0.68 0 0 Z " fill="#4198C8" transform="translate(737,210)"/>
<path d="M0 0 C0.66 0 1.32 0 2 0 C1.67 0.66 1.34 1.32 1 2 C0.67 1.34 0.34 0.68 0 0 Z " fill="#4198C8" transform="translate(708,198)"/>
<path d="M0 0 C3 1 3 1 3 1 Z " fill="#469CCB" transform="translate(311,198)"/>
<path d="M0 0 C2 1 2 1 2 1 Z " fill="#3D8DBB" transform="translate(788,879)"/>
<path d="M0 0 C2 1 2 1 2 1 Z " fill="#408BB8" transform="translate(211,875)"/>
<path d="M0 0 C2 1 2 1 2 1 Z " fill="#408CBA" transform="translate(192,867)"/>
<path d="" fill="#3F8CB9" transform="translate(0,0)"/>
<path d="M0 0 C2 1 2 1 2 1 Z " fill="#428EBA" transform="translate(152,831)"/>
<path d="" fill="#3F8AB5" transform="translate(0,0)"/>
<path d="" fill="#408CB7" transform="translate(0,0)"/>
<path d="" fill="#428EBA" transform="translate(0,0)"/>
<path d="" fill="#3C8AB7" transform="translate(0,0)"/>
<path d="" fill="#3C8AB8" transform="translate(0,0)"/>
<path d="" fill="#3F8DBA" transform="translate(0,0)"/>
<path d="" fill="#3E8DB9" transform="translate(0,0)"/>
<path d="" fill="#3B8DBB" transform="translate(0,0)"/>
<path d="" fill="#3C8EBB" transform="translate(0,0)"/>
<path d="" fill="#3C8EBC" transform="translate(0,0)"/>
<path d="" fill="#3C8FBD" transform="translate(0,0)"/>
<path d="" fill="#3C8FBD" transform="translate(0,0)"/>
<path d="" fill="#3B8EBC" transform="translate(0,0)"/>
<path d="" fill="#449AC7" transform="translate(0,0)"/>
<path d="" fill="#429AC7" transform="translate(0,0)"/>
<path d="" fill="#3C8DBA" transform="translate(0,0)"/>
<path d="" fill="#3F8CB8" transform="translate(0,0)"/>
<path d="" fill="#3E8BB9" transform="translate(0,0)"/>
<path d="" fill="#3D8EBB" transform="translate(0,0)"/>
<path d="" fill="#4C9CC8" transform="translate(0,0)"/>
<path d="M0 0 C2 1 2 1 2 1 Z " fill="#469CCA" transform="translate(693,552)"/>
<path d="" fill="#418DB9" transform="translate(0,0)"/>
<path d="" fill="#3E8FBE" transform="translate(0,0)"/>
<path d="" fill="#3F8CB9" transform="translate(0,0)"/>
<path d="M0 0 C2 1 2 1 2 1 Z " fill="#499BCA" transform="translate(279,536)"/>
<path d="" fill="#3D8FBD" transform="translate(0,0)"/>
<path d="" fill="#3C8FBC" transform="translate(0,0)"/>
<path d="" fill="#3D8EBB" transform="translate(0,0)"/>
<path d="" fill="#489BC6" transform="translate(0,0)"/>
<path d="" fill="#3C8CB8" transform="translate(0,0)"/>
<path d="" fill="#469BC7" transform="translate(0,0)"/>
<path d="" fill="#469AC9" transform="translate(0,0)"/>
<path d="" fill="#3E97C8" transform="translate(0,0)"/>
<path d="" fill="#4499C8" transform="translate(0,0)"/>
<path d="" fill="#439AC7" transform="translate(0,0)"/>
<path d="" fill="#3E8EBC" transform="translate(0,0)"/>
<path d="" fill="#3E8DBA" transform="translate(0,0)"/>
<path d="" fill="#3C8DBC" transform="translate(0,0)"/>
<path d="" fill="#4598C6" transform="translate(0,0)"/>
<path d="M0 0 C2 1 2 1 2 1 Z " fill="#449AC6" transform="translate(361,403)"/>
<path d="" fill="#4699C6" transform="translate(0,0)"/>
<path d="M0 0 C2 1 2 1 2 1 Z " fill="#4499C8" transform="translate(476,401)"/>
<path d="M0 0 C2 1 2 1 2 1 Z " fill="#449ACA" transform="translate(462,394)"/>
<path d="M0 0 C2 1 2 1 2 1 Z " fill="#459BC9" transform="translate(656,387)"/>
<path d="" fill="#3E8DBA" transform="translate(0,0)"/>
<path d="M0 0 C2 1 2 1 2 1 Z " fill="#4294C2" transform="translate(646,384)"/>
<path d="" fill="#3C8BB9" transform="translate(0,0)"/>
<path d="M0 0 C2 1 2 1 2 1 Z " fill="#439AC8" transform="translate(635,381)"/>
<path d="" fill="#3D8AB9" transform="translate(0,0)"/>
<path d="M0 0 C2 1 2 1 2 1 Z " fill="#449AC9" transform="translate(395,373)"/>
<path d="" fill="#3E8EBB" transform="translate(0,0)"/>
<path d="M0 0 C2 1 2 1 2 1 Z " fill="#4498CA" transform="translate(579,364)"/>
<path d="" fill="#439ACB" transform="translate(0,0)"/>
<path d="" fill="#3D8EBD" transform="translate(0,0)"/>
<path d="" fill="#3E8CBB" transform="translate(0,0)"/>
<path d="" fill="#3E8BB9" transform="translate(0,0)"/>
<path d="" fill="#469AC8" transform="translate(0,0)"/>
<path d="" fill="#429BC9" transform="translate(0,0)"/>
<path d="" fill="#3C8EBB" transform="translate(0,0)"/>
<path d="" fill="#429ACA" transform="translate(0,0)"/>
<path d="" fill="#449ACA" transform="translate(0,0)"/>
<path d="" fill="#3D8DBB" transform="translate(0,0)"/>
<path d="" fill="#4097C8" transform="translate(0,0)"/>
<path d="" fill="#4497C5" transform="translate(0,0)"/>
<path d="" fill="#3E89B6" transform="translate(0,0)"/>
<path d="M0 0 C2 1 2 1 2 1 Z " fill="#459AC7" transform="translate(411,266)"/>
<path d="" fill="#439AC8" transform="translate(0,0)"/>
<path d="M0 0 C2 1 2 1 2 1 Z " fill="#4298C9" transform="translate(636,248)"/>
<path d="" fill="#3F8EBC" transform="translate(0,0)"/>
<path d="M0 0 C2 1 2 1 2 1 Z " fill="#3F98C6" transform="translate(614,241)"/>
<path d="M0 0 C2 1 2 1 2 1 Z " fill="#429AC8" transform="translate(598,241)"/>
<path d="M0 0 C2 1 2 1 2 1 Z " fill="#449BCA" transform="translate(595,241)"/>
<path d="M0 0 C2 1 2 1 2 1 Z " fill="#4095C5" transform="translate(254,241)"/>
<path d="M0 0 C2 1 2 1 2 1 Z " fill="#449ACA" transform="translate(621,240)"/>
<path d="M0 0 C2 1 2 1 2 1 Z " fill="#439AC9" transform="translate(609,240)"/>
<path d="M0 0 C2 1 2 1 2 1 Z " fill="#4398C7" transform="translate(606,240)"/>
<path d="M0 0 C2 1 2 1 2 1 Z " fill="#449BC8" transform="translate(600,240)"/>
<path d="M0 0 C2 1 2 1 2 1 Z " fill="#4397C9" transform="translate(725,204)"/>
<path d="M0 0 C2 1 2 1 2 1 Z " fill="#4297C7" transform="translate(325,199)"/>
<path d="M0 0 C2 1 2 1 2 1 Z " fill="#489CCB" transform="translate(308,199)"/>
<path d="M0 0 C2 1 2 1 2 1 Z " fill="#4199CA" transform="translate(697,197)"/>
<path d="M0 0 C2 1 2 1 2 1 Z " fill="#4499CA" transform="translate(314,197)"/>
<path d="M0 0 C2 1 2 1 2 1 Z " fill="#439ACA" transform="translate(701,196)"/>
<path d="M0 0 C2 1 2 1 2 1 Z " fill="#449ACB" transform="translate(319,196)"/>
<path d="" fill="#408FBA" transform="translate(0,0)"/>
<path d="" fill="#3D8CB9" transform="translate(0,0)"/>
<path d="M0 0 C2 1 2 1 2 1 Z " fill="#3E8DBA" transform="translate(185,128)"/>
<path d="M0 0 C2 1 2 1 2 1 Z " fill="#3F8CB9" transform="translate(801,114)"/>
<path d="" fill="#3E8EBA" transform="translate(0,0)"/>
<path d="M0 0 C2 1 2 1 2 1 Z " fill="#408FBA" transform="translate(790,112)"/>
<path d="M0 0 C2 1 2 1 2 1 Z " fill="#438FBB" transform="translate(613,112)"/>
<path d="M0 0 C2 1 2 1 2 1 Z " fill="#4490BC" transform="translate(278,112)"/>
<path d="M0 0 C2 1 2 1 2 1 Z " fill="#4090BA" transform="translate(242,112)"/>
<path d="" fill="#3D8EBD" transform="translate(0,0)"/>
<path d="" fill="#3F8CBA" transform="translate(0,0)"/>
<path d="" fill="#3D8EBC" transform="translate(0,0)"/>
<path d="" fill="#3E8BB8" transform="translate(0,0)"/>
<path d="" fill="#3C8AB7" transform="translate(0,0)"/>
<path d="" fill="#408BB6" transform="translate(0,0)"/>
<path d="" fill="#3E88B7" transform="translate(0,0)"/>
<path d="" fill="#3F89B7" transform="translate(0,0)"/>
<path d="" fill="#4190BD" transform="translate(0,0)"/>
<path d="" fill="#3E8DB9" transform="translate(0,0)"/>
<path d="" fill="#3F8AB9" transform="translate(0,0)"/>
<path d="" fill="#3F8BB7" transform="translate(0,0)"/>
<path d="" fill="#408CB9" transform="translate(0,0)"/>
<path d="" fill="#4189B5" transform="translate(0,0)"/>
<path d="" fill="#438CB9" transform="translate(0,0)"/>
<path d="" fill="#3E87B3" transform="translate(0,0)"/>
<path d="" fill="#4089B7" transform="translate(0,0)"/>
<path d="" fill="#3D8CB8" transform="translate(0,0)"/>
<path d="" fill="#3E87B0" transform="translate(0,0)"/>
<path d="" fill="#408AB6" transform="translate(0,0)"/>
<path d="" fill="#408CB7" transform="translate(0,0)"/>
<path d="" fill="#408AB6" transform="translate(0,0)"/>
<path d="" fill="#408CB7" transform="translate(0,0)"/>
<path d="" fill="#3E87B6" transform="translate(0,0)"/>
<path d="" fill="#408AB7" transform="translate(0,0)"/>
<path d="" fill="#428EBA" transform="translate(0,0)"/>
<path d="" fill="#3B88B5" transform="translate(0,0)"/>
<path d="" fill="#4089B5" transform="translate(0,0)"/>
<path d="" fill="#428CB8" transform="translate(0,0)"/>
<path d="" fill="#408CBA" transform="translate(0,0)"/>
<path d="" fill="#428BB7" transform="translate(0,0)"/>
<path d="" fill="#3E8CB5" transform="translate(0,0)"/>
<path d="" fill="#428CB8" transform="translate(0,0)"/>
<path d="" fill="#3F8BB6" transform="translate(0,0)"/>
<path d="" fill="#408EB8" transform="translate(0,0)"/>
<path d="" fill="#449AC9" transform="translate(0,0)"/>
<path d="" fill="#439AC9" transform="translate(0,0)"/>
<path d="" fill="#3F8FBA" transform="translate(0,0)"/>
<path d="" fill="#3F8EBB" transform="translate(0,0)"/>
<path d="" fill="#4191BD" transform="translate(0,0)"/>
<path d="" fill="#3F8AB5" transform="translate(0,0)"/>
<path d="" fill="#419BCB" transform="translate(0,0)"/>
<path d="" fill="#3F8DB8" transform="translate(0,0)"/>
<path d="" fill="#3D8FBB" transform="translate(0,0)"/>
<path d="" fill="#3D8EBB" transform="translate(0,0)"/>
<path d="" fill="#3E8DBB" transform="translate(0,0)"/>
<path d="" fill="#3D8DB9" transform="translate(0,0)"/>
<path d="" fill="#3B8DBB" transform="translate(0,0)"/>
<path d="" fill="#3E8DB9" transform="translate(0,0)"/>
<path d="" fill="#3D8EBC" transform="translate(0,0)"/>
<path d="" fill="#3B8DBD" transform="translate(0,0)"/>
<path d="" fill="#3D8EBC" transform="translate(0,0)"/>
<path d="" fill="#3E8CBB" transform="translate(0,0)"/>
<path d="" fill="#3D8FBD" transform="translate(0,0)"/>
<path d="" fill="#3C8DBC" transform="translate(0,0)"/>
<path d="" fill="#3C8CB9" transform="translate(0,0)"/>
<path d="" fill="#3C8CBB" transform="translate(0,0)"/>
<path d="" fill="#3C8FBE" transform="translate(0,0)"/>
<path d="" fill="#3D8FBA" transform="translate(0,0)"/>
<path d="" fill="#419BC6" transform="translate(0,0)"/>
<path d="" fill="#4498C7" transform="translate(0,0)"/>
<path d="" fill="#3B8CBD" transform="translate(0,0)"/>
<path d="" fill="#419AC6" transform="translate(0,0)"/>
<path d="" fill="#459CC7" transform="translate(0,0)"/>
<path d="" fill="#4399C6" transform="translate(0,0)"/>
<path d="" fill="#3D8EBD" transform="translate(0,0)"/>
<path d="" fill="#3F8EB8" transform="translate(0,0)"/>
<path d="" fill="#3F8DBA" transform="translate(0,0)"/>
<path d="" fill="#3D8EBC" transform="translate(0,0)"/>
<path d="" fill="#459AC8" transform="translate(0,0)"/>
<path d="" fill="#3D8FBC" transform="translate(0,0)"/>
<path d="" fill="#4497C9" transform="translate(0,0)"/>
<path d="" fill="#3A8DBD" transform="translate(0,0)"/>
<path d="" fill="#4499C8" transform="translate(0,0)"/>
<path d="" fill="#3C8DBB" transform="translate(0,0)"/>
<path d="" fill="#4498C8" transform="translate(0,0)"/>
<path d="" fill="#3E8BB9" transform="translate(0,0)"/>
<path d="" fill="#4C9DC9" transform="translate(0,0)"/>
<path d="" fill="#4598C8" transform="translate(0,0)"/>
<path d="" fill="#3E8DB8" transform="translate(0,0)"/>
<path d="" fill="#469CCB" transform="translate(0,0)"/>
<path d="" fill="#3D8BB9" transform="translate(0,0)"/>
<path d="" fill="#459BC8" transform="translate(0,0)"/>
<path d="" fill="#3C8DBD" transform="translate(0,0)"/>
<path d="" fill="#3B8DBB" transform="translate(0,0)"/>
<path d="" fill="#4A9ECA" transform="translate(0,0)"/>
<path d="" fill="#3F8CB7" transform="translate(0,0)"/>
<path d="" fill="#489EC9" transform="translate(0,0)"/>
<path d="" fill="#3D8CBA" transform="translate(0,0)"/>
<path d="" fill="#4B9DC9" transform="translate(0,0)"/>
<path d="" fill="#4C9BC6" transform="translate(0,0)"/>
<path d="" fill="#4C9DC7" transform="translate(0,0)"/>
<path d="" fill="#4D9BC5" transform="translate(0,0)"/>
<path d="" fill="#4A9CC8" transform="translate(0,0)"/>
<path d="" fill="#4A9CC7" transform="translate(0,0)"/>
<path d="" fill="#4B9EC8" transform="translate(0,0)"/>
<path d="" fill="#4B9CC6" transform="translate(0,0)"/>
<path d="" fill="#4C9DC7" transform="translate(0,0)"/>
<path d="" fill="#4B9DC8" transform="translate(0,0)"/>
<path d="" fill="#4D9EC8" transform="translate(0,0)"/>
<path d="" fill="#4A9BC8" transform="translate(0,0)"/>
<path d="" fill="#4B9CC8" transform="translate(0,0)"/>
<path d="" fill="#4A9EC7" transform="translate(0,0)"/>
<path d="" fill="#4A9CC8" transform="translate(0,0)"/>
<path d="" fill="#4A9CC7" transform="translate(0,0)"/>
<path d="" fill="#4C9DC8" transform="translate(0,0)"/>
<path d="" fill="#489DCA" transform="translate(0,0)"/>
<path d="" fill="#449BC8" transform="translate(0,0)"/>
<path d="" fill="#3C8CBB" transform="translate(0,0)"/>
<path d="" fill="#4E9FCD" transform="translate(0,0)"/>
<path d="" fill="#509FCC" transform="translate(0,0)"/>
<path d="" fill="#4FA0CD" transform="translate(0,0)"/>
<path d="" fill="#3E8EBA" transform="translate(0,0)"/>
<path d="" fill="#469AC8" transform="translate(0,0)"/>
<path d="" fill="#3F8DB9" transform="translate(0,0)"/>
<path d="" fill="#4299CA" transform="translate(0,0)"/>
<path d="" fill="#439ACB" transform="translate(0,0)"/>
<path d="" fill="#3D8BBA" transform="translate(0,0)"/>
<path d="" fill="#459CCB" transform="translate(0,0)"/>
<path d="" fill="#479BCA" transform="translate(0,0)"/>
<path d="" fill="#459CCA" transform="translate(0,0)"/>
<path d="" fill="#4397C8" transform="translate(0,0)"/>
<path d="" fill="#4398C8" transform="translate(0,0)"/>
<path d="" fill="#4299C9" transform="translate(0,0)"/>
<path d="" fill="#3F8DB9" transform="translate(0,0)"/>
<path d="" fill="#429BCB" transform="translate(0,0)"/>
<path d="" fill="#4398C8" transform="translate(0,0)"/>
<path d="" fill="#489BC9" transform="translate(0,0)"/>
<path d="" fill="#439CCD" transform="translate(0,0)"/>
<path d="" fill="#419BCB" transform="translate(0,0)"/>
<path d="" fill="#469BCB" transform="translate(0,0)"/>
<path d="" fill="#3D8FBD" transform="translate(0,0)"/>
<path d="" fill="#3C8DBD" transform="translate(0,0)"/>
<path d="" fill="#4097C7" transform="translate(0,0)"/>
<path d="" fill="#459CCA" transform="translate(0,0)"/>
<path d="" fill="#3D8EBB" transform="translate(0,0)"/>
<path d="" fill="#3F90BE" transform="translate(0,0)"/>
<path d="" fill="#4496C6" transform="translate(0,0)"/>
<path d="" fill="#3E90BD" transform="translate(0,0)"/>
<path d="" fill="#4A9ECA" transform="translate(0,0)"/>
<path d="" fill="#4298C9" transform="translate(0,0)"/>
<path d="" fill="#3D8BBA" transform="translate(0,0)"/>
<path d="" fill="#439AC7" transform="translate(0,0)"/>
<path d="" fill="#3E98C7" transform="translate(0,0)"/>
<path d="" fill="#3E8DB9" transform="translate(0,0)"/>
<path d="" fill="#3D8EBE" transform="translate(0,0)"/>
<path d="" fill="#3B8EBC" transform="translate(0,0)"/>
<path d="" fill="#4399C8" transform="translate(0,0)"/>
<path d="" fill="#3C8BBB" transform="translate(0,0)"/>
<path d="" fill="#3C8FBC" transform="translate(0,0)"/>
<path d="" fill="#4598C3" transform="translate(0,0)"/>
<path d="" fill="#4599C4" transform="translate(0,0)"/>
<path d="" fill="#439BC9" transform="translate(0,0)"/>
<path d="" fill="#4399C8" transform="translate(0,0)"/>
<path d="" fill="#4596C2" transform="translate(0,0)"/>
<path d="" fill="#3D8CBA" transform="translate(0,0)"/>
<path d="" fill="#3D8DBC" transform="translate(0,0)"/>
<path d="" fill="#4199C8" transform="translate(0,0)"/>
<path d="" fill="#3D8BBC" transform="translate(0,0)"/>
<path d="" fill="#4195C5" transform="translate(0,0)"/>
<path d="" fill="#4297C7" transform="translate(0,0)"/>
<path d="" fill="#449BC8" transform="translate(0,0)"/>
<path d="" fill="#4395BF" transform="translate(0,0)"/>
<path d="" fill="#4496C5" transform="translate(0,0)"/>
<path d="" fill="#489AC7" transform="translate(0,0)"/>
<path d="" fill="#3D8EBE" transform="translate(0,0)"/>
<path d="" fill="#3D8FBD" transform="translate(0,0)"/>
<path d="" fill="#459AC5" transform="translate(0,0)"/>
<path d="" fill="#3F95C5" transform="translate(0,0)"/>
<path d="" fill="#3D8EBC" transform="translate(0,0)"/>
<path d="" fill="#4098C6" transform="translate(0,0)"/>
<path d="" fill="#459BC8" transform="translate(0,0)"/>
<path d="" fill="#4899C5" transform="translate(0,0)"/>
<path d="" fill="#439BCA" transform="translate(0,0)"/>
<path d="" fill="#4294C4" transform="translate(0,0)"/>
<path d="" fill="#449BC8" transform="translate(0,0)"/>
<path d="" fill="#3C8CBC" transform="translate(0,0)"/>
<path d="" fill="#479BC8" transform="translate(0,0)"/>
<path d="" fill="#459AC7" transform="translate(0,0)"/>
<path d="" fill="#449CCA" transform="translate(0,0)"/>
<path d="" fill="#4296C6" transform="translate(0,0)"/>
<path d="" fill="#4499C5" transform="translate(0,0)"/>
<path d="" fill="#489DCA" transform="translate(0,0)"/>
<path d="" fill="#449BC9" transform="translate(0,0)"/>
<path d="" fill="#4699C7" transform="translate(0,0)"/>
<path d="" fill="#4598C6" transform="translate(0,0)"/>
<path d="" fill="#459AC6" transform="translate(0,0)"/>
<path d="" fill="#439AC9" transform="translate(0,0)"/>
<path d="" fill="#3C8DBC" transform="translate(0,0)"/>
<path d="" fill="#439ACA" transform="translate(0,0)"/>
<path d="" fill="#449AC7" transform="translate(0,0)"/>
<path d="" fill="#408CB8" transform="translate(0,0)"/>
<path d="" fill="#4498C6" transform="translate(0,0)"/>
<path d="" fill="#459AC9" transform="translate(0,0)"/>
<path d="" fill="#3B8DBA" transform="translate(0,0)"/>
<path d="" fill="#449BCA" transform="translate(0,0)"/>
<path d="" fill="#469BC9" transform="translate(0,0)"/>
<path d="" fill="#469AC8" transform="translate(0,0)"/>
<path d="" fill="#449BCA" transform="translate(0,0)"/>
<path d="" fill="#469CCC" transform="translate(0,0)"/>
<path d="" fill="#479ECC" transform="translate(0,0)"/>
<path d="" fill="#48A0CE" transform="translate(0,0)"/>
<path d="" fill="#469DCD" transform="translate(0,0)"/>
<path d="" fill="#3D8EBB" transform="translate(0,0)"/>
<path d="" fill="#449CC9" transform="translate(0,0)"/>
<path d="" fill="#459BCC" transform="translate(0,0)"/>
<path d="" fill="#469AC9" transform="translate(0,0)"/>
<path d="" fill="#459CCB" transform="translate(0,0)"/>
<path d="" fill="#3A8DBC" transform="translate(0,0)"/>
<path d="" fill="#489DC9" transform="translate(0,0)"/>
<path d="" fill="#449ECA" transform="translate(0,0)"/>
<path d="" fill="#449CCC" transform="translate(0,0)"/>
<path d="" fill="#449BCB" transform="translate(0,0)"/>
<path d="" fill="#449BCA" transform="translate(0,0)"/>
<path d="" fill="#459BC9" transform="translate(0,0)"/>
<path d="" fill="#459ACA" transform="translate(0,0)"/>
<path d="" fill="#3E8EBE" transform="translate(0,0)"/>
<path d="" fill="#4299C9" transform="translate(0,0)"/>
<path d="" fill="#4199C8" transform="translate(0,0)"/>
<path d="" fill="#4499C9" transform="translate(0,0)"/>
<path d="" fill="#3E8EB9" transform="translate(0,0)"/>
<path d="" fill="#459DCB" transform="translate(0,0)"/>
<path d="" fill="#3E8DB9" transform="translate(0,0)"/>
<path d="" fill="#469DCA" transform="translate(0,0)"/>
<path d="" fill="#4599C8" transform="translate(0,0)"/>
<path d="" fill="#469CCA" transform="translate(0,0)"/>
<path d="" fill="#3D90BD" transform="translate(0,0)"/>
<path d="" fill="#4097C8" transform="translate(0,0)"/>
<path d="" fill="#3E8BB8" transform="translate(0,0)"/>
<path d="" fill="#4199C9" transform="translate(0,0)"/>
<path d="" fill="#4097C8" transform="translate(0,0)"/>
<path d="" fill="#4899C8" transform="translate(0,0)"/>
<path d="" fill="#439BCA" transform="translate(0,0)"/>
<path d="" fill="#4399CB" transform="translate(0,0)"/>
<path d="" fill="#408DBA" transform="translate(0,0)"/>
<path d="" fill="#459BCA" transform="translate(0,0)"/>
<path d="" fill="#4298C9" transform="translate(0,0)"/>
<path d="" fill="#459AC7" transform="translate(0,0)"/>
<path d="" fill="#4498C5" transform="translate(0,0)"/>
<path d="" fill="#3F8FBF" transform="translate(0,0)"/>
<path d="" fill="#4497C6" transform="translate(0,0)"/>
<path d="" fill="#4296C4" transform="translate(0,0)"/>
<path d="" fill="#3F8EBC" transform="translate(0,0)"/>
<path d="" fill="#4599C8" transform="translate(0,0)"/>
<path d="" fill="#3E8EBB" transform="translate(0,0)"/>
<path d="" fill="#4499C8" transform="translate(0,0)"/>
<path d="" fill="#449BCA" transform="translate(0,0)"/>
<path d="" fill="#4398C7" transform="translate(0,0)"/>
<path d="" fill="#3C8DBB" transform="translate(0,0)"/>
<path d="" fill="#4797C4" transform="translate(0,0)"/>
<path d="" fill="#3F99C9" transform="translate(0,0)"/>
<path d="" fill="#449AC8" transform="translate(0,0)"/>
<path d="" fill="#3C8DBB" transform="translate(0,0)"/>
<path d="" fill="#4299C9" transform="translate(0,0)"/>
<path d="" fill="#469CC9" transform="translate(0,0)"/>
<path d="" fill="#489BC7" transform="translate(0,0)"/>
<path d="" fill="#4299C8" transform="translate(0,0)"/>
<path d="" fill="#3E8BB9" transform="translate(0,0)"/>
<path d="" fill="#4598C5" transform="translate(0,0)"/>
<path d="" fill="#3D8AB9" transform="translate(0,0)"/>
<path d="" fill="#3F91BD" transform="translate(0,0)"/>
<path d="" fill="#3C8AB7" transform="translate(0,0)"/>
<path d="" fill="#3E8DBC" transform="translate(0,0)"/>
<path d="" fill="#3D8EBE" transform="translate(0,0)"/>
<path d="" fill="#4197C7" transform="translate(0,0)"/>
<path d="" fill="#449AC8" transform="translate(0,0)"/>
<path d="" fill="#3C8CB9" transform="translate(0,0)"/>
<path d="" fill="#4296C3" transform="translate(0,0)"/>
<path d="" fill="#3F8CBA" transform="translate(0,0)"/>
<path d="" fill="#4497C5" transform="translate(0,0)"/>
<path d="" fill="#4799C3" transform="translate(0,0)"/>
<path d="" fill="#4198C7" transform="translate(0,0)"/>
<path d="" fill="#3F8FBD" transform="translate(0,0)"/>
<path d="" fill="#3E8EBB" transform="translate(0,0)"/>
<path d="" fill="#449AC6" transform="translate(0,0)"/>
<path d="" fill="#4199C6" transform="translate(0,0)"/>
<path d="" fill="#459BC8" transform="translate(0,0)"/>
<path d="" fill="#449AC5" transform="translate(0,0)"/>
<path d="" fill="#4797C4" transform="translate(0,0)"/>
<path d="" fill="#3C8CB6" transform="translate(0,0)"/>
<path d="" fill="#429AC6" transform="translate(0,0)"/>
<path d="" fill="#4896C5" transform="translate(0,0)"/>
<path d="" fill="#4499C7" transform="translate(0,0)"/>
<path d="" fill="#4497C4" transform="translate(0,0)"/>
<path d="" fill="#3F8EBC" transform="translate(0,0)"/>
<path d="" fill="#4198C7" transform="translate(0,0)"/>
<path d="" fill="#4399C7" transform="translate(0,0)"/>
<path d="" fill="#4599C6" transform="translate(0,0)"/>
<path d="" fill="#479BC8" transform="translate(0,0)"/>
<path d="" fill="#4597C6" transform="translate(0,0)"/>
<path d="" fill="#469AC9" transform="translate(0,0)"/>
<path d="" fill="#4296C3" transform="translate(0,0)"/>
<path d="" fill="#459CCA" transform="translate(0,0)"/>
<path d="" fill="#4199C8" transform="translate(0,0)"/>
<path d="" fill="#459CCA" transform="translate(0,0)"/>
<path d="" fill="#4199C8" transform="translate(0,0)"/>
<path d="" fill="#459BCA" transform="translate(0,0)"/>
<path d="" fill="#469DC8" transform="translate(0,0)"/>
<path d="" fill="#459AC7" transform="translate(0,0)"/>
<path d="" fill="#469AC7" transform="translate(0,0)"/>
<path d="" fill="#489BC9" transform="translate(0,0)"/>
<path d="" fill="#4799C8" transform="translate(0,0)"/>
<path d="" fill="#499FCC" transform="translate(0,0)"/>
<path d="" fill="#3E8FBD" transform="translate(0,0)"/>
<path d="" fill="#4496C5" transform="translate(0,0)"/>
<path d="" fill="#4198C7" transform="translate(0,0)"/>
<path d="" fill="#3F8EBC" transform="translate(0,0)"/>
<path d="" fill="#3C8BBA" transform="translate(0,0)"/>
<path d="" fill="#3D96C8" transform="translate(0,0)"/>
<path d="" fill="#4497C7" transform="translate(0,0)"/>
<path d="" fill="#4498C6" transform="translate(0,0)"/>
<path d="" fill="#449ACB" transform="translate(0,0)"/>
<path d="" fill="#459AC9" transform="translate(0,0)"/>
<path d="" fill="#3F8EBB" transform="translate(0,0)"/>
<path d="" fill="#4299C9" transform="translate(0,0)"/>
<path d="" fill="#3E8CBA" transform="translate(0,0)"/>
<path d="" fill="#4D9BC9" transform="translate(0,0)"/>
<path d="" fill="#4298C8" transform="translate(0,0)"/>
<path d="" fill="#459AC9" transform="translate(0,0)"/>
<path d="" fill="#4599C9" transform="translate(0,0)"/>
<path d="" fill="#4197C7" transform="translate(0,0)"/>
<path d="" fill="#449ACA" transform="translate(0,0)"/>
<path d="" fill="#3F96C5" transform="translate(0,0)"/>
<path d="" fill="#439ECC" transform="translate(0,0)"/>
<path d="" fill="#4299C3" transform="translate(0,0)"/>
<path d="" fill="#3F8EBC" transform="translate(0,0)"/>
<path d="" fill="#439BCA" transform="translate(0,0)"/>
<path d="" fill="#459BCA" transform="translate(0,0)"/>
<path d="" fill="#3E8BB9" transform="translate(0,0)"/>
<path d="" fill="#3D8DBB" transform="translate(0,0)"/>
<path d="" fill="#459CCD" transform="translate(0,0)"/>
<path d="" fill="#429BC9" transform="translate(0,0)"/>
<path d="" fill="#449CCA" transform="translate(0,0)"/>
<path d="" fill="#459AC8" transform="translate(0,0)"/>
<path d="" fill="#4098C8" transform="translate(0,0)"/>
<path d="" fill="#4398C7" transform="translate(0,0)"/>
<path d="" fill="#408FBB" transform="translate(0,0)"/>
<path d="" fill="#449ACA" transform="translate(0,0)"/>
<path d="" fill="#4397C7" transform="translate(0,0)"/>
<path d="" fill="#3D8AB9" transform="translate(0,0)"/>
<path d="" fill="#479ACA" transform="translate(0,0)"/>
<path d="" fill="#4298CA" transform="translate(0,0)"/>
<path d="" fill="#3E8AB6" transform="translate(0,0)"/>
<path d="" fill="#4599C5" transform="translate(0,0)"/>
<path d="" fill="#4397C7" transform="translate(0,0)"/>
<path d="" fill="#418FBA" transform="translate(0,0)"/>
<path d="" fill="#439BCB" transform="translate(0,0)"/>
<path d="" fill="#449ACA" transform="translate(0,0)"/>
<path d="" fill="#408EBA" transform="translate(0,0)"/>
<path d="" fill="#4399C9" transform="translate(0,0)"/>
<path d="" fill="#3F8EB8" transform="translate(0,0)"/>
<path d="" fill="#418CB8" transform="translate(0,0)"/>
<path d="" fill="#4299CA" transform="translate(0,0)"/>
<path d="" fill="#428DB9" transform="translate(0,0)"/>
<path d="" fill="#4098CA" transform="translate(0,0)"/>
<path d="" fill="#429BCB" transform="translate(0,0)"/>
<path d="" fill="#469AC9" transform="translate(0,0)"/>
<path d="" fill="#439AC5" transform="translate(0,0)"/>
<path d="" fill="#408BB5" transform="translate(0,0)"/>
<path d="" fill="#428FBA" transform="translate(0,0)"/>
<path d="" fill="#438EB8" transform="translate(0,0)"/>
<path d="" fill="#418AB6" transform="translate(0,0)"/>
<path d="" fill="#3F8CB8" transform="translate(0,0)"/>
<path d="" fill="#418DB7" transform="translate(0,0)"/>
<path d="" fill="#408DB6" transform="translate(0,0)"/>
<path d="" fill="#3E89B2" transform="translate(0,0)"/>
<path d="" fill="#3E8DB9" transform="translate(0,0)"/>
<path d="" fill="#3F8CB8" transform="translate(0,0)"/>
<path d="" fill="#3E86B1" transform="translate(0,0)"/>
<path d="" fill="#428CB6" transform="translate(0,0)"/>
<path d="" fill="#408CB7" transform="translate(0,0)"/>
<path d="" fill="#3F88B3" transform="translate(0,0)"/>
<path d="" fill="#428EB6" transform="translate(0,0)"/>
<path d="" fill="#3E8BB5" transform="translate(0,0)"/>
<path d="" fill="#3E8CB8" transform="translate(0,0)"/>
<path d="" fill="#408AB8" transform="translate(0,0)"/>
<path d="" fill="#408BB5" transform="translate(0,0)"/>
<path d="" fill="#3E8AB5" transform="translate(0,0)"/>
<path d="" fill="#408AB6" transform="translate(0,0)"/>
<path d="" fill="#3F8AB7" transform="translate(0,0)"/>
<path d="" fill="#3E86B2" transform="translate(0,0)"/>
<path d="" fill="#3B88B6" transform="translate(0,0)"/>
<path d="" fill="#3E8CB7" transform="translate(0,0)"/>
<path d="" fill="#408DB8" transform="translate(0,0)"/>
<path d="" fill="#3F88B4" transform="translate(0,0)"/>
<path d="" fill="#408DB8" transform="translate(0,0)"/>
<path d="" fill="#3E8DBB" transform="translate(0,0)"/>
<path d="" fill="#4190BA" transform="translate(0,0)"/>
<path d="" fill="#3C8CB7" transform="translate(0,0)"/>
<path d="" fill="#418CBA" transform="translate(0,0)"/>
<path d="" fill="#418EBA" transform="translate(0,0)"/>
<path d="" fill="#438EBB" transform="translate(0,0)"/>
<path d="" fill="#428EBA" transform="translate(0,0)"/>
<path d="" fill="#418FBA" transform="translate(0,0)"/>
<path d="" fill="#428EBB" transform="translate(0,0)"/>
<path d="" fill="#4490BA" transform="translate(0,0)"/>
<path d="" fill="#4592BB" transform="translate(0,0)"/>
<path d="" fill="#4291BC" transform="translate(0,0)"/>
<path d="" fill="#438FBB" transform="translate(0,0)"/>
<path d="" fill="#4391BD" transform="translate(0,0)"/>
<path d="" fill="#4290BC" transform="translate(0,0)"/>
<path d="" fill="#458FB9" transform="translate(0,0)"/>
<path d="" fill="#438FBB" transform="translate(0,0)"/>
<path d="" fill="#4290BB" transform="translate(0,0)"/>
<path d="" fill="#4290BD" transform="translate(0,0)"/>
<path d="" fill="#428FBA" transform="translate(0,0)"/>
<path d="" fill="#4390BC" transform="translate(0,0)"/>
<path d="" fill="#448FBB" transform="translate(0,0)"/>
<path d="" fill="#418FBC" transform="translate(0,0)"/>
<path d="" fill="#4190BB" transform="translate(0,0)"/>
<path d="" fill="#438FBB" transform="translate(0,0)"/>
<path d="" fill="#4590BD" transform="translate(0,0)"/>
<path d="" fill="#418FBC" transform="translate(0,0)"/>
<path d="" fill="#4290BB" transform="translate(0,0)"/>
<path d="" fill="#428EBA" transform="translate(0,0)"/>
<path d="" fill="#4391BC" transform="translate(0,0)"/>
<path d="" fill="#408EB9" transform="translate(0,0)"/>
<path d="" fill="#428FBA" transform="translate(0,0)"/>
<path d="" fill="#4491BB" transform="translate(0,0)"/>
<path d="" fill="#408DB9" transform="translate(0,0)"/>
<path d="" fill="#418FBC" transform="translate(0,0)"/>
<path d="" fill="#438FBB" transform="translate(0,0)"/>
<path d="" fill="#428FBA" transform="translate(0,0)"/>
<path d="" fill="#4290BC" transform="translate(0,0)"/>
<path d="" fill="#4190BC" transform="translate(0,0)"/>
<path d="" fill="#428EBA" transform="translate(0,0)"/>
<path d="" fill="#408EBA" transform="translate(0,0)"/>
<path d="" fill="#418DB8" transform="translate(0,0)"/>
</svg>
